G04 #@! TF.GenerationSoftware,KiCad,Pcbnew,(5.1.0-0)*
G04 #@! TF.CreationDate,2020-07-17T10:06:27-06:00*
G04 #@! TF.ProjectId,Monitor,4d6f6e69-746f-4722-9e6b-696361645f70,rev?*
G04 #@! TF.SameCoordinates,Original*
G04 #@! TF.FileFunction,Copper,L2,Bot*
G04 #@! TF.FilePolarity,Positive*
%FSLAX46Y46*%
G04 Gerber Fmt 4.6, Leading zero omitted, Abs format (unit mm)*
G04 Created by KiCad (PCBNEW (5.1.0-0)) date 2020-07-17 10:06:27*
%MOMM*%
%LPD*%
G04 APERTURE LIST*
%ADD10R,1.524000X1.524000*%
%ADD11C,1.524000*%
%ADD12C,0.330000*%
%ADD13C,1.500000*%
%ADD14C,0.500000*%
%ADD15C,0.450000*%
%ADD16C,0.508000*%
%ADD17C,0.762000*%
%ADD18C,0.152400*%
%ADD19C,0.254000*%
%ADD20C,0.088900*%
G04 APERTURE END LIST*
D10*
X138081600Y-106900000D03*
D11*
X145600000Y-106900000D03*
D12*
X157060000Y-107215000D03*
X159060000Y-107215000D03*
X158060000Y-107215000D03*
X161060000Y-107215000D03*
X160060000Y-107215000D03*
X157060000Y-106215000D03*
X159060000Y-106215000D03*
X158060000Y-106215000D03*
X161060000Y-106215000D03*
X160060000Y-106215000D03*
X157060000Y-105215000D03*
X159060000Y-105215000D03*
X158060000Y-105215000D03*
X161060000Y-105215000D03*
X160060000Y-105215000D03*
X157060000Y-104215000D03*
X159060000Y-104215000D03*
X158060000Y-104215000D03*
X161060000Y-104215000D03*
X160060000Y-104215000D03*
X161060000Y-103215000D03*
X160060000Y-103215000D03*
X159060000Y-103215000D03*
X158060000Y-103215000D03*
X157060000Y-103215000D03*
X159060000Y-107965000D03*
X156310000Y-106215000D03*
X158810000Y-108465000D03*
X159810000Y-108465000D03*
X160310000Y-108465000D03*
X162310000Y-103465000D03*
X162310000Y-106465000D03*
X162310000Y-106965000D03*
X159310000Y-101965000D03*
X159810000Y-101965000D03*
D13*
X124375000Y-98700000D03*
X124450000Y-102325000D03*
X124550000Y-81475000D03*
X124525000Y-84125000D03*
D14*
X161750000Y-71050000D03*
X125150000Y-63000000D03*
D15*
X137250000Y-75500000D03*
X137250000Y-74500000D03*
X137250000Y-73500000D03*
X137250000Y-72500000D03*
D16*
X130000000Y-87500000D03*
X150000000Y-77500000D03*
X155000000Y-77500000D03*
X160000000Y-77500000D03*
X165000000Y-77500000D03*
X170000000Y-77500000D03*
X175000000Y-77500000D03*
X175000000Y-82500000D03*
X135000000Y-82500000D03*
X125000000Y-87500000D03*
X135000000Y-87500000D03*
X160000000Y-87500000D03*
X170000000Y-87500000D03*
X165000000Y-92500000D03*
X160000000Y-92500000D03*
X125000000Y-92500000D03*
X125000000Y-97500000D03*
X140000000Y-97500000D03*
X145000000Y-97500000D03*
X170000000Y-97500000D03*
X170750000Y-103000000D03*
X145000000Y-102500000D03*
X150000000Y-102500000D03*
X140000000Y-102500000D03*
X135000000Y-102500000D03*
X125000000Y-107500000D03*
X135000000Y-107500000D03*
X140000000Y-107500000D03*
X150000000Y-107500000D03*
X170000000Y-107500000D03*
X175000000Y-107500000D03*
X170000000Y-112500000D03*
X165000000Y-112500000D03*
X160000000Y-112500000D03*
X155000000Y-112500000D03*
X150000000Y-112500000D03*
X145000000Y-112500000D03*
X140000000Y-112500000D03*
X135000000Y-112500000D03*
X135000000Y-77500000D03*
X130000000Y-77500000D03*
X125000000Y-77500000D03*
D15*
X138250000Y-76500000D03*
X138250000Y-77500000D03*
X138250000Y-78500000D03*
X143750000Y-80250000D03*
X141000000Y-76500000D03*
X141000000Y-77500000D03*
X142000000Y-77750000D03*
X142750000Y-80250000D03*
X141750000Y-80250000D03*
X140750000Y-80250000D03*
X139750000Y-80000000D03*
X139000000Y-79250000D03*
X143000000Y-77750000D03*
X144000000Y-77750000D03*
X145000000Y-77750000D03*
X145750000Y-78250000D03*
X146500000Y-79000000D03*
X146750000Y-80000000D03*
X141250000Y-75500000D03*
X141250000Y-74500000D03*
X141250000Y-73500000D03*
X141250000Y-72500000D03*
X138000000Y-85000000D03*
X142600000Y-83900000D03*
X147500000Y-83900000D03*
X145100000Y-85900000D03*
X142700000Y-87900000D03*
X147500000Y-87900000D03*
X142700000Y-93800000D03*
X147500000Y-93800000D03*
X177250000Y-95000000D03*
X176250000Y-95000000D03*
X175250000Y-95000000D03*
X174250000Y-95000000D03*
X173250000Y-95000000D03*
X172250000Y-95000000D03*
X171250000Y-95250000D03*
X171250000Y-96250000D03*
X171250000Y-97250000D03*
X171250000Y-98250000D03*
X171250000Y-99250000D03*
X171250000Y-100250000D03*
X172250000Y-100250000D03*
X173250000Y-100250000D03*
X174750000Y-102000000D03*
X174750000Y-103000000D03*
X173750000Y-103000000D03*
X172750000Y-103000000D03*
X169750000Y-103000000D03*
X171750000Y-103000000D03*
X168750000Y-103000000D03*
X169000000Y-101750000D03*
X167750000Y-101750000D03*
X167750000Y-103000000D03*
X166750000Y-103000000D03*
X177250000Y-100250000D03*
X177250000Y-101250000D03*
X177250000Y-102250000D03*
X177250000Y-103250000D03*
X177250000Y-104250000D03*
X176750000Y-105250000D03*
X175750000Y-105250000D03*
X173250000Y-105500000D03*
X172250000Y-105500000D03*
X171250000Y-105500000D03*
X170250000Y-105500000D03*
X169250000Y-105500000D03*
X168250000Y-105500000D03*
X165750000Y-105500000D03*
X164750000Y-105500000D03*
X163750000Y-105500000D03*
D16*
X159200000Y-96525000D03*
D17*
X136000000Y-90100000D03*
X138550000Y-94500000D03*
X134500000Y-81350000D03*
X143625000Y-98500000D03*
X128075000Y-94000000D03*
X134900000Y-96099996D03*
X128600000Y-88400000D03*
X170000000Y-108500000D03*
D15*
X150600000Y-87600000D03*
X139500000Y-91600000D03*
X150600000Y-88600000D03*
X151199998Y-93150000D03*
X151150000Y-92100002D03*
D16*
X156550000Y-109300000D03*
D15*
X150600000Y-92100000D03*
X139500000Y-91100000D03*
X150600000Y-88100000D03*
D16*
X159400000Y-97500000D03*
D15*
X139500000Y-90600000D03*
D18*
X136000000Y-91950000D02*
X136000000Y-90100000D01*
X138550000Y-94500000D02*
X136000000Y-91950000D01*
D19*
X130025000Y-84125000D02*
X136000000Y-90100000D01*
X124525000Y-84125000D02*
X130025000Y-84125000D01*
D18*
X143625000Y-98475000D02*
X143625000Y-98500000D01*
X137050000Y-91900000D02*
X143625000Y-98475000D01*
X137050000Y-83900000D02*
X137050000Y-91900000D01*
X134500000Y-81350000D02*
X137050000Y-83900000D01*
D19*
X130174996Y-96099996D02*
X134900000Y-96099996D01*
X128075000Y-94000000D02*
X130174996Y-96099996D01*
X128980999Y-88780999D02*
X128600000Y-88400000D01*
X134900000Y-96099996D02*
X134900000Y-94700000D01*
X134900000Y-94700000D02*
X128980999Y-88780999D01*
D18*
X162115000Y-107965000D02*
X169465000Y-107965000D01*
X161230000Y-108850000D02*
X162115000Y-107965000D01*
X159060000Y-107965000D02*
X159224999Y-108129999D01*
X159224999Y-108129999D02*
X159224999Y-108524999D01*
X159224999Y-108524999D02*
X159550000Y-108850000D01*
X159550000Y-108850000D02*
X161230000Y-108850000D01*
X169465000Y-107965000D02*
X169619001Y-108119001D01*
X169619001Y-108119001D02*
X170000000Y-108500000D01*
X163300000Y-105975000D02*
X162310000Y-106965000D01*
X153900000Y-87600000D02*
X163300000Y-97000000D01*
X163300000Y-97000000D02*
X163300000Y-105975000D01*
X150600000Y-87600000D02*
X153900000Y-87600000D01*
X159645001Y-101800001D02*
X159810000Y-101965000D01*
X158275000Y-100430000D02*
X159645001Y-101800001D01*
X158275000Y-95200000D02*
X158275000Y-100430000D01*
X153225000Y-90150000D02*
X158275000Y-95200000D01*
X139200000Y-90150000D02*
X153225000Y-90150000D01*
X138900000Y-90450000D02*
X139200000Y-90150000D01*
X139500000Y-91600000D02*
X139181802Y-91600000D01*
X139181802Y-91600000D02*
X138900000Y-91318198D01*
X138900000Y-91318198D02*
X138900000Y-90450000D01*
X160685000Y-108465000D02*
X160310000Y-108465000D01*
X161650000Y-107500000D02*
X160685000Y-108465000D01*
X161650000Y-106550000D02*
X161650000Y-107500000D01*
X162640101Y-105559899D02*
X161650000Y-106550000D01*
X162640101Y-97440101D02*
X162640101Y-105559899D01*
X153800000Y-88600000D02*
X162640101Y-97440101D01*
X150600000Y-88600000D02*
X153800000Y-88600000D01*
X151518196Y-93150000D02*
X151199998Y-93150000D01*
X152200000Y-93150000D02*
X151518196Y-93150000D01*
X156200000Y-97150000D02*
X152200000Y-93150000D01*
X156200000Y-102025000D02*
X156200000Y-97150000D01*
X156900000Y-102725000D02*
X156200000Y-102025000D01*
X158550000Y-103075000D02*
X158200000Y-102725000D01*
X158200000Y-102725000D02*
X156900000Y-102725000D01*
X158550000Y-108205000D02*
X158550000Y-103075000D01*
X158810000Y-108465000D02*
X158550000Y-108205000D01*
X151468198Y-92100002D02*
X151150000Y-92100002D01*
X159550000Y-108205000D02*
X159550000Y-102700000D01*
X157500000Y-95675000D02*
X153925002Y-92100002D01*
X153925002Y-92100002D02*
X151468198Y-92100002D01*
X157500000Y-100650000D02*
X157500000Y-95675000D01*
X159550000Y-102700000D02*
X157500000Y-100650000D01*
X159810000Y-108465000D02*
X159550000Y-108205000D01*
X150250000Y-92100000D02*
X150600000Y-92100000D01*
X150000000Y-92350000D02*
X150250000Y-92100000D01*
X150000000Y-99400000D02*
X150000000Y-92350000D01*
X156650000Y-106050000D02*
X150000000Y-99400000D01*
X156650000Y-109200000D02*
X156650000Y-106050000D01*
X156550000Y-109300000D02*
X156650000Y-109200000D01*
X139500000Y-91100000D02*
X149250000Y-91100000D01*
X149250000Y-91100000D02*
X149500000Y-91350000D01*
X149500000Y-99405000D02*
X156310000Y-106215000D01*
X149500000Y-91350000D02*
X149500000Y-99405000D01*
X163000000Y-97300000D02*
X153800000Y-88100000D01*
X153800000Y-88100000D02*
X150600000Y-88100000D01*
X163000000Y-105775000D02*
X163000000Y-97300000D01*
X162310000Y-106465000D02*
X163000000Y-105775000D01*
X161750000Y-97500000D02*
X159400000Y-97500000D01*
X162310000Y-98060000D02*
X161750000Y-97500000D01*
X162310000Y-103465000D02*
X162310000Y-98060000D01*
X159145001Y-101800001D02*
X159310000Y-101965000D01*
X153100000Y-90600000D02*
X157850000Y-95350000D01*
X157850000Y-100505000D02*
X159145001Y-101800001D01*
X157850000Y-95350000D02*
X157850000Y-100505000D01*
X139500000Y-90600000D02*
X153100000Y-90600000D01*
D19*
G36*
X126373000Y-68173000D02*
G01*
X124800000Y-68173000D01*
X124775224Y-68175440D01*
X124751399Y-68182667D01*
X124729443Y-68194403D01*
X124710197Y-68210197D01*
X124694403Y-68229443D01*
X124682667Y-68251399D01*
X124675440Y-68275224D01*
X124673000Y-68300000D01*
X124673000Y-68800000D01*
X124675440Y-68824776D01*
X124682667Y-68848601D01*
X124694403Y-68870557D01*
X124710197Y-68889803D01*
X124729443Y-68905597D01*
X124751399Y-68917333D01*
X124775224Y-68924560D01*
X124800000Y-68927000D01*
X126373000Y-68927000D01*
X126373000Y-69723000D01*
X124627000Y-69723000D01*
X124627000Y-67427000D01*
X126200000Y-67427000D01*
X126224776Y-67424560D01*
X126248601Y-67417333D01*
X126270557Y-67405597D01*
X126289803Y-67389803D01*
X126305597Y-67370557D01*
X126317333Y-67348601D01*
X126324560Y-67324776D01*
X126327000Y-67300000D01*
X126327000Y-66800000D01*
X126324560Y-66775224D01*
X126317333Y-66751399D01*
X126305597Y-66729443D01*
X126289803Y-66710197D01*
X126270557Y-66694403D01*
X126248601Y-66682667D01*
X126224776Y-66675440D01*
X126200000Y-66673000D01*
X124627000Y-66673000D01*
X124627000Y-62627000D01*
X126373000Y-62627000D01*
X126373000Y-68173000D01*
X126373000Y-68173000D01*
G37*
X126373000Y-68173000D02*
X124800000Y-68173000D01*
X124775224Y-68175440D01*
X124751399Y-68182667D01*
X124729443Y-68194403D01*
X124710197Y-68210197D01*
X124694403Y-68229443D01*
X124682667Y-68251399D01*
X124675440Y-68275224D01*
X124673000Y-68300000D01*
X124673000Y-68800000D01*
X124675440Y-68824776D01*
X124682667Y-68848601D01*
X124694403Y-68870557D01*
X124710197Y-68889803D01*
X124729443Y-68905597D01*
X124751399Y-68917333D01*
X124775224Y-68924560D01*
X124800000Y-68927000D01*
X126373000Y-68927000D01*
X126373000Y-69723000D01*
X124627000Y-69723000D01*
X124627000Y-67427000D01*
X126200000Y-67427000D01*
X126224776Y-67424560D01*
X126248601Y-67417333D01*
X126270557Y-67405597D01*
X126289803Y-67389803D01*
X126305597Y-67370557D01*
X126317333Y-67348601D01*
X126324560Y-67324776D01*
X126327000Y-67300000D01*
X126327000Y-66800000D01*
X126324560Y-66775224D01*
X126317333Y-66751399D01*
X126305597Y-66729443D01*
X126289803Y-66710197D01*
X126270557Y-66694403D01*
X126248601Y-66682667D01*
X126224776Y-66675440D01*
X126200000Y-66673000D01*
X124627000Y-66673000D01*
X124627000Y-62627000D01*
X126373000Y-62627000D01*
X126373000Y-68173000D01*
G36*
X126373000Y-71273000D02*
G01*
X124627000Y-71273000D01*
X124627000Y-70477000D01*
X126373000Y-70477000D01*
X126373000Y-71273000D01*
X126373000Y-71273000D01*
G37*
X126373000Y-71273000D02*
X124627000Y-71273000D01*
X124627000Y-70477000D01*
X126373000Y-70477000D01*
X126373000Y-71273000D01*
G36*
X127963000Y-69473000D02*
G01*
X127117000Y-69473000D01*
X127117000Y-67427000D01*
X127963000Y-67427000D01*
X127963000Y-69473000D01*
X127963000Y-69473000D01*
G37*
X127963000Y-69473000D02*
X127117000Y-69473000D01*
X127117000Y-67427000D01*
X127963000Y-67427000D01*
X127963000Y-69473000D01*
G36*
X153573000Y-72173000D02*
G01*
X152827000Y-72173000D01*
X152827000Y-70127000D01*
X153573000Y-70127000D01*
X153573000Y-72173000D01*
X153573000Y-72173000D01*
G37*
X153573000Y-72173000D02*
X152827000Y-72173000D01*
X152827000Y-70127000D01*
X153573000Y-70127000D01*
X153573000Y-72173000D01*
G36*
X156573000Y-70850000D02*
G01*
X156575440Y-70874776D01*
X156582667Y-70898601D01*
X156594403Y-70920557D01*
X156610197Y-70939803D01*
X156629443Y-70955597D01*
X156651399Y-70967333D01*
X156675224Y-70974560D01*
X156700000Y-70977000D01*
X157200000Y-70977000D01*
X157224776Y-70974560D01*
X157248601Y-70967333D01*
X157270557Y-70955597D01*
X157289803Y-70939803D01*
X157305597Y-70920557D01*
X157317333Y-70898601D01*
X157324560Y-70874776D01*
X157327000Y-70850000D01*
X157327000Y-70127000D01*
X158073000Y-70127000D01*
X158073000Y-70850000D01*
X158075440Y-70874776D01*
X158082667Y-70898601D01*
X158094403Y-70920557D01*
X158110197Y-70939803D01*
X158129443Y-70955597D01*
X158151399Y-70967333D01*
X158175224Y-70974560D01*
X158200000Y-70977000D01*
X158700000Y-70977000D01*
X158724776Y-70974560D01*
X158748601Y-70967333D01*
X158770557Y-70955597D01*
X158789803Y-70939803D01*
X158805597Y-70920557D01*
X158817333Y-70898601D01*
X158824560Y-70874776D01*
X158827000Y-70850000D01*
X158827000Y-70127000D01*
X159573000Y-70127000D01*
X159573000Y-70850000D01*
X159575440Y-70874776D01*
X159582667Y-70898601D01*
X159594403Y-70920557D01*
X159610197Y-70939803D01*
X159629443Y-70955597D01*
X159651399Y-70967333D01*
X159675224Y-70974560D01*
X159700000Y-70977000D01*
X160250000Y-70977000D01*
X160274776Y-70974560D01*
X160298601Y-70967333D01*
X160320557Y-70955597D01*
X160339803Y-70939803D01*
X160355597Y-70920557D01*
X160367333Y-70898601D01*
X160374560Y-70874776D01*
X160377000Y-70850000D01*
X160377000Y-70127000D01*
X162123000Y-70127000D01*
X162123000Y-72173000D01*
X160327000Y-72173000D01*
X160327000Y-71150000D01*
X160324560Y-71125224D01*
X160317333Y-71101399D01*
X160305597Y-71079443D01*
X160289803Y-71060197D01*
X160270557Y-71044403D01*
X160248601Y-71032667D01*
X160224776Y-71025440D01*
X160200000Y-71023000D01*
X159700000Y-71023000D01*
X159675224Y-71025440D01*
X159651399Y-71032667D01*
X159629443Y-71044403D01*
X159610197Y-71060197D01*
X159594403Y-71079443D01*
X159582667Y-71101399D01*
X159575440Y-71125224D01*
X159573000Y-71150000D01*
X159573000Y-72173000D01*
X158827000Y-72173000D01*
X158827000Y-71150000D01*
X158824560Y-71125224D01*
X158817333Y-71101399D01*
X158805597Y-71079443D01*
X158789803Y-71060197D01*
X158770557Y-71044403D01*
X158748601Y-71032667D01*
X158724776Y-71025440D01*
X158700000Y-71023000D01*
X158200000Y-71023000D01*
X158175224Y-71025440D01*
X158151399Y-71032667D01*
X158129443Y-71044403D01*
X158110197Y-71060197D01*
X158094403Y-71079443D01*
X158082667Y-71101399D01*
X158075440Y-71125224D01*
X158073000Y-71150000D01*
X158073000Y-72173000D01*
X157327000Y-72173000D01*
X157327000Y-71150000D01*
X157324560Y-71125224D01*
X157317333Y-71101399D01*
X157305597Y-71079443D01*
X157289803Y-71060197D01*
X157270557Y-71044403D01*
X157248601Y-71032667D01*
X157224776Y-71025440D01*
X157200000Y-71023000D01*
X156700000Y-71023000D01*
X156675224Y-71025440D01*
X156651399Y-71032667D01*
X156629443Y-71044403D01*
X156610197Y-71060197D01*
X156594403Y-71079443D01*
X156582667Y-71101399D01*
X156575440Y-71125224D01*
X156573000Y-71150000D01*
X156573000Y-72173000D01*
X155827000Y-72173000D01*
X155827000Y-70127000D01*
X156573000Y-70127000D01*
X156573000Y-70850000D01*
X156573000Y-70850000D01*
G37*
X156573000Y-70850000D02*
X156575440Y-70874776D01*
X156582667Y-70898601D01*
X156594403Y-70920557D01*
X156610197Y-70939803D01*
X156629443Y-70955597D01*
X156651399Y-70967333D01*
X156675224Y-70974560D01*
X156700000Y-70977000D01*
X157200000Y-70977000D01*
X157224776Y-70974560D01*
X157248601Y-70967333D01*
X157270557Y-70955597D01*
X157289803Y-70939803D01*
X157305597Y-70920557D01*
X157317333Y-70898601D01*
X157324560Y-70874776D01*
X157327000Y-70850000D01*
X157327000Y-70127000D01*
X158073000Y-70127000D01*
X158073000Y-70850000D01*
X158075440Y-70874776D01*
X158082667Y-70898601D01*
X158094403Y-70920557D01*
X158110197Y-70939803D01*
X158129443Y-70955597D01*
X158151399Y-70967333D01*
X158175224Y-70974560D01*
X158200000Y-70977000D01*
X158700000Y-70977000D01*
X158724776Y-70974560D01*
X158748601Y-70967333D01*
X158770557Y-70955597D01*
X158789803Y-70939803D01*
X158805597Y-70920557D01*
X158817333Y-70898601D01*
X158824560Y-70874776D01*
X158827000Y-70850000D01*
X158827000Y-70127000D01*
X159573000Y-70127000D01*
X159573000Y-70850000D01*
X159575440Y-70874776D01*
X159582667Y-70898601D01*
X159594403Y-70920557D01*
X159610197Y-70939803D01*
X159629443Y-70955597D01*
X159651399Y-70967333D01*
X159675224Y-70974560D01*
X159700000Y-70977000D01*
X160250000Y-70977000D01*
X160274776Y-70974560D01*
X160298601Y-70967333D01*
X160320557Y-70955597D01*
X160339803Y-70939803D01*
X160355597Y-70920557D01*
X160367333Y-70898601D01*
X160374560Y-70874776D01*
X160377000Y-70850000D01*
X160377000Y-70127000D01*
X162123000Y-70127000D01*
X162123000Y-72173000D01*
X160327000Y-72173000D01*
X160327000Y-71150000D01*
X160324560Y-71125224D01*
X160317333Y-71101399D01*
X160305597Y-71079443D01*
X160289803Y-71060197D01*
X160270557Y-71044403D01*
X160248601Y-71032667D01*
X160224776Y-71025440D01*
X160200000Y-71023000D01*
X159700000Y-71023000D01*
X159675224Y-71025440D01*
X159651399Y-71032667D01*
X159629443Y-71044403D01*
X159610197Y-71060197D01*
X159594403Y-71079443D01*
X159582667Y-71101399D01*
X159575440Y-71125224D01*
X159573000Y-71150000D01*
X159573000Y-72173000D01*
X158827000Y-72173000D01*
X158827000Y-71150000D01*
X158824560Y-71125224D01*
X158817333Y-71101399D01*
X158805597Y-71079443D01*
X158789803Y-71060197D01*
X158770557Y-71044403D01*
X158748601Y-71032667D01*
X158724776Y-71025440D01*
X158700000Y-71023000D01*
X158200000Y-71023000D01*
X158175224Y-71025440D01*
X158151399Y-71032667D01*
X158129443Y-71044403D01*
X158110197Y-71060197D01*
X158094403Y-71079443D01*
X158082667Y-71101399D01*
X158075440Y-71125224D01*
X158073000Y-71150000D01*
X158073000Y-72173000D01*
X157327000Y-72173000D01*
X157327000Y-71150000D01*
X157324560Y-71125224D01*
X157317333Y-71101399D01*
X157305597Y-71079443D01*
X157289803Y-71060197D01*
X157270557Y-71044403D01*
X157248601Y-71032667D01*
X157224776Y-71025440D01*
X157200000Y-71023000D01*
X156700000Y-71023000D01*
X156675224Y-71025440D01*
X156651399Y-71032667D01*
X156629443Y-71044403D01*
X156610197Y-71060197D01*
X156594403Y-71079443D01*
X156582667Y-71101399D01*
X156575440Y-71125224D01*
X156573000Y-71150000D01*
X156573000Y-72173000D01*
X155827000Y-72173000D01*
X155827000Y-70127000D01*
X156573000Y-70127000D01*
X156573000Y-70850000D01*
G36*
X155073000Y-72173000D02*
G01*
X154327000Y-72173000D01*
X154327000Y-70127000D01*
X155073000Y-70127000D01*
X155073000Y-72173000D01*
X155073000Y-72173000D01*
G37*
X155073000Y-72173000D02*
X154327000Y-72173000D01*
X154327000Y-70127000D01*
X155073000Y-70127000D01*
X155073000Y-72173000D01*
D20*
G36*
X145155550Y-74330000D02*
G01*
X145156404Y-74338672D01*
X145158934Y-74347010D01*
X145163041Y-74354695D01*
X145168569Y-74361431D01*
X145175305Y-74366959D01*
X145182990Y-74371066D01*
X145191328Y-74373596D01*
X145200000Y-74374450D01*
X177730551Y-74374450D01*
X177730550Y-96565550D01*
X177214450Y-96565550D01*
X177214450Y-95610000D01*
X177213596Y-95601328D01*
X177211066Y-95592990D01*
X177206959Y-95585305D01*
X177201431Y-95578569D01*
X177194695Y-95573041D01*
X177187010Y-95568934D01*
X177178672Y-95566404D01*
X177170000Y-95565550D01*
X176470000Y-95565550D01*
X176461328Y-95566404D01*
X176452990Y-95568934D01*
X176445305Y-95573041D01*
X176438569Y-95578569D01*
X176433041Y-95585305D01*
X176428934Y-95592990D01*
X176426404Y-95601328D01*
X176425550Y-95610000D01*
X176425550Y-96565550D01*
X175914450Y-96565550D01*
X175914450Y-95610000D01*
X175913596Y-95601328D01*
X175911066Y-95592990D01*
X175906959Y-95585305D01*
X175901431Y-95578569D01*
X175894695Y-95573041D01*
X175887010Y-95568934D01*
X175878672Y-95566404D01*
X175870000Y-95565550D01*
X171770000Y-95565550D01*
X171761328Y-95566404D01*
X171752990Y-95568934D01*
X171745305Y-95573041D01*
X171738569Y-95578569D01*
X171733041Y-95585305D01*
X171728934Y-95592990D01*
X171726404Y-95601328D01*
X171725550Y-95610000D01*
X171725550Y-99610000D01*
X171726404Y-99618672D01*
X171728934Y-99627010D01*
X171733041Y-99634695D01*
X171738569Y-99641431D01*
X171745305Y-99646959D01*
X171752990Y-99651066D01*
X171761328Y-99653596D01*
X171770000Y-99654450D01*
X175870000Y-99654450D01*
X175878672Y-99653596D01*
X175887010Y-99651066D01*
X175894695Y-99646959D01*
X175901431Y-99641431D01*
X175906959Y-99634695D01*
X175911066Y-99627010D01*
X175913596Y-99618672D01*
X175914450Y-99610000D01*
X175914450Y-98654450D01*
X176425550Y-98654450D01*
X176425550Y-99610000D01*
X176426404Y-99618672D01*
X176428934Y-99627010D01*
X176433041Y-99634695D01*
X176438569Y-99641431D01*
X176445305Y-99646959D01*
X176452990Y-99651066D01*
X176461328Y-99653596D01*
X176470000Y-99654450D01*
X177170000Y-99654450D01*
X177178672Y-99653596D01*
X177187010Y-99651066D01*
X177194695Y-99646959D01*
X177201431Y-99641431D01*
X177206959Y-99634695D01*
X177211066Y-99627010D01*
X177213596Y-99618672D01*
X177214450Y-99610000D01*
X177214450Y-98654450D01*
X177730550Y-98654450D01*
X177730550Y-113060169D01*
X177634744Y-112772165D01*
X177462240Y-112468503D01*
X177234040Y-112204131D01*
X176958835Y-111989117D01*
X176647109Y-111831653D01*
X176310735Y-111737736D01*
X175962525Y-111710942D01*
X175615742Y-111752294D01*
X175283595Y-111860215D01*
X174978737Y-112030595D01*
X174712777Y-112256944D01*
X174495848Y-112530640D01*
X174336211Y-112841260D01*
X174239948Y-113176970D01*
X174210724Y-113524985D01*
X174249654Y-113872048D01*
X174355253Y-114204939D01*
X174523501Y-114510980D01*
X174747987Y-114778513D01*
X175020163Y-114997348D01*
X175329660Y-115159149D01*
X175572260Y-115230550D01*
X122432023Y-115230550D01*
X122693440Y-115149628D01*
X123000648Y-114983521D01*
X123269741Y-114760908D01*
X123490471Y-114490267D01*
X123654429Y-114181906D01*
X123755370Y-113847573D01*
X123789450Y-113500000D01*
X123788752Y-113450036D01*
X123744981Y-113103550D01*
X123634744Y-112772165D01*
X123462240Y-112468503D01*
X123234040Y-112204131D01*
X122958835Y-111989117D01*
X122647109Y-111831653D01*
X122310735Y-111737736D01*
X121962525Y-111710942D01*
X121615742Y-111752294D01*
X121283595Y-111860215D01*
X120978737Y-112030595D01*
X120712777Y-112256944D01*
X120495848Y-112530640D01*
X120336211Y-112841260D01*
X120269450Y-113074084D01*
X120269450Y-106138000D01*
X137073968Y-106138000D01*
X137073968Y-107662000D01*
X137078688Y-107709920D01*
X137092666Y-107755999D01*
X137115364Y-107798466D01*
X137145912Y-107835688D01*
X137183134Y-107866236D01*
X137225601Y-107888934D01*
X137271680Y-107902912D01*
X137319600Y-107907632D01*
X138843600Y-107907632D01*
X138891520Y-107902912D01*
X138937599Y-107888934D01*
X138980066Y-107866236D01*
X139017288Y-107835688D01*
X139047836Y-107798466D01*
X139070534Y-107755999D01*
X139084512Y-107709920D01*
X139089232Y-107662000D01*
X139089232Y-106138000D01*
X139084512Y-106090080D01*
X139070534Y-106044001D01*
X139047836Y-106001534D01*
X139017288Y-105964312D01*
X138980066Y-105933764D01*
X138937599Y-105911066D01*
X138891520Y-105897088D01*
X138843600Y-105892368D01*
X137319600Y-105892368D01*
X137271680Y-105897088D01*
X137225601Y-105911066D01*
X137183134Y-105933764D01*
X137145912Y-105964312D01*
X137115364Y-106001534D01*
X137092666Y-106044001D01*
X137078688Y-106090080D01*
X137073968Y-106138000D01*
X120269450Y-106138000D01*
X120269450Y-102227055D01*
X123455550Y-102227055D01*
X123455550Y-102422945D01*
X123493766Y-102615070D01*
X123568730Y-102796049D01*
X123677560Y-102958925D01*
X123816075Y-103097440D01*
X123978951Y-103206270D01*
X124159930Y-103281234D01*
X124352055Y-103319450D01*
X124547945Y-103319450D01*
X124740070Y-103281234D01*
X124921049Y-103206270D01*
X125083925Y-103097440D01*
X125222440Y-102958925D01*
X125331270Y-102796049D01*
X125406234Y-102615070D01*
X125444450Y-102422945D01*
X125444450Y-102227055D01*
X125406234Y-102034930D01*
X125331270Y-101853951D01*
X125222440Y-101691075D01*
X125083925Y-101552560D01*
X124921049Y-101443730D01*
X124740070Y-101368766D01*
X124547945Y-101330550D01*
X124352055Y-101330550D01*
X124159930Y-101368766D01*
X123978951Y-101443730D01*
X123816075Y-101552560D01*
X123677560Y-101691075D01*
X123568730Y-101853951D01*
X123493766Y-102034930D01*
X123455550Y-102227055D01*
X120269450Y-102227055D01*
X120269450Y-93938399D01*
X127449550Y-93938399D01*
X127449550Y-94061601D01*
X127473586Y-94182437D01*
X127520734Y-94296262D01*
X127589181Y-94398701D01*
X127676299Y-94485819D01*
X127778738Y-94554266D01*
X127892563Y-94601414D01*
X128013399Y-94625450D01*
X128136601Y-94625450D01*
X128168747Y-94619056D01*
X129899444Y-96349754D01*
X129911071Y-96363921D01*
X129925237Y-96375547D01*
X129925242Y-96375552D01*
X129944188Y-96391100D01*
X129967631Y-96410340D01*
X130032161Y-96444831D01*
X130080938Y-96459628D01*
X130102178Y-96466071D01*
X130108601Y-96466704D01*
X130156751Y-96471446D01*
X130156758Y-96471446D01*
X130174996Y-96473242D01*
X130193233Y-96471446D01*
X134395973Y-96471446D01*
X134414181Y-96498697D01*
X134501299Y-96585815D01*
X134603738Y-96654262D01*
X134717563Y-96701410D01*
X134838399Y-96725446D01*
X134961601Y-96725446D01*
X135082437Y-96701410D01*
X135196262Y-96654262D01*
X135298701Y-96585815D01*
X135385819Y-96498697D01*
X135454266Y-96396258D01*
X135501414Y-96282433D01*
X135525450Y-96161597D01*
X135525450Y-96038395D01*
X135501414Y-95917559D01*
X135454266Y-95803734D01*
X135385819Y-95701295D01*
X135298701Y-95614177D01*
X135271450Y-95595969D01*
X135271450Y-94718229D01*
X135273245Y-94699999D01*
X135271450Y-94681769D01*
X135271450Y-94681755D01*
X135266075Y-94627183D01*
X135265550Y-94625450D01*
X135258258Y-94601414D01*
X135244835Y-94557165D01*
X135210344Y-94492635D01*
X135163925Y-94436075D01*
X135149753Y-94424444D01*
X129256564Y-88531256D01*
X129256555Y-88531245D01*
X129219056Y-88493746D01*
X129225450Y-88461601D01*
X129225450Y-88338399D01*
X129201414Y-88217563D01*
X129154266Y-88103738D01*
X129085819Y-88001299D01*
X128998701Y-87914181D01*
X128896262Y-87845734D01*
X128782437Y-87798586D01*
X128661601Y-87774550D01*
X128538399Y-87774550D01*
X128417563Y-87798586D01*
X128303738Y-87845734D01*
X128201299Y-87914181D01*
X128114181Y-88001299D01*
X128045734Y-88103738D01*
X127998586Y-88217563D01*
X127974550Y-88338399D01*
X127974550Y-88461601D01*
X127998586Y-88582437D01*
X128045734Y-88696262D01*
X128114181Y-88798701D01*
X128201299Y-88885819D01*
X128303738Y-88954266D01*
X128417563Y-89001414D01*
X128538399Y-89025450D01*
X128661601Y-89025450D01*
X128693746Y-89019056D01*
X128731245Y-89056555D01*
X128731256Y-89056564D01*
X134528551Y-94853860D01*
X134528550Y-95595968D01*
X134501299Y-95614177D01*
X134414181Y-95701295D01*
X134395973Y-95728546D01*
X130328856Y-95728546D01*
X128694056Y-94093747D01*
X128700450Y-94061601D01*
X128700450Y-93938399D01*
X128676414Y-93817563D01*
X128629266Y-93703738D01*
X128560819Y-93601299D01*
X128473701Y-93514181D01*
X128371262Y-93445734D01*
X128257437Y-93398586D01*
X128136601Y-93374550D01*
X128013399Y-93374550D01*
X127892563Y-93398586D01*
X127778738Y-93445734D01*
X127676299Y-93514181D01*
X127589181Y-93601299D01*
X127520734Y-93703738D01*
X127473586Y-93817563D01*
X127449550Y-93938399D01*
X120269450Y-93938399D01*
X120269450Y-84027055D01*
X123530550Y-84027055D01*
X123530550Y-84222945D01*
X123568766Y-84415070D01*
X123643730Y-84596049D01*
X123752560Y-84758925D01*
X123891075Y-84897440D01*
X124053951Y-85006270D01*
X124234930Y-85081234D01*
X124427055Y-85119450D01*
X124622945Y-85119450D01*
X124815070Y-85081234D01*
X124996049Y-85006270D01*
X125158925Y-84897440D01*
X125297440Y-84758925D01*
X125406270Y-84596049D01*
X125447525Y-84496450D01*
X129871142Y-84496450D01*
X135380944Y-90006253D01*
X135374550Y-90038399D01*
X135374550Y-90161601D01*
X135398586Y-90282437D01*
X135445734Y-90396262D01*
X135514181Y-90498701D01*
X135601299Y-90585819D01*
X135679351Y-90637971D01*
X135679350Y-91934255D01*
X135677799Y-91950000D01*
X135679350Y-91965745D01*
X135679350Y-91965746D01*
X135683990Y-92012857D01*
X135702325Y-92073300D01*
X135707029Y-92082100D01*
X135732100Y-92129005D01*
X135741535Y-92140501D01*
X135772169Y-92177831D01*
X135784413Y-92187879D01*
X137942864Y-94346331D01*
X137924550Y-94438399D01*
X137924550Y-94561601D01*
X137948586Y-94682437D01*
X137995734Y-94796262D01*
X138064181Y-94898701D01*
X138151299Y-94985819D01*
X138253738Y-95054266D01*
X138367563Y-95101414D01*
X138488399Y-95125450D01*
X138611601Y-95125450D01*
X138732437Y-95101414D01*
X138846262Y-95054266D01*
X138948701Y-94985819D01*
X139035819Y-94898701D01*
X139104266Y-94796262D01*
X139151414Y-94682437D01*
X139175450Y-94561601D01*
X139175450Y-94478917D01*
X143022011Y-98325479D01*
X142999550Y-98438399D01*
X142999550Y-98561601D01*
X143023586Y-98682437D01*
X143070734Y-98796262D01*
X143139181Y-98898701D01*
X143226299Y-98985819D01*
X143328738Y-99054266D01*
X143442563Y-99101414D01*
X143563399Y-99125450D01*
X143686601Y-99125450D01*
X143807437Y-99101414D01*
X143921262Y-99054266D01*
X144023701Y-98985819D01*
X144110819Y-98898701D01*
X144179266Y-98796262D01*
X144226414Y-98682437D01*
X144250450Y-98561601D01*
X144250450Y-98438399D01*
X144226414Y-98317563D01*
X144179266Y-98203738D01*
X144110819Y-98101299D01*
X144023701Y-98014181D01*
X143921262Y-97945734D01*
X143807437Y-97898586D01*
X143686601Y-97874550D01*
X143563399Y-97874550D01*
X143492184Y-97888716D01*
X137370650Y-91767184D01*
X137370650Y-90450000D01*
X138577799Y-90450000D01*
X138579351Y-90465755D01*
X138579350Y-91302453D01*
X138577799Y-91318198D01*
X138579350Y-91333943D01*
X138579350Y-91333944D01*
X138583990Y-91381055D01*
X138602325Y-91441498D01*
X138602326Y-91441499D01*
X138632100Y-91497203D01*
X138641535Y-91508699D01*
X138672169Y-91546029D01*
X138684412Y-91556076D01*
X138943931Y-91815597D01*
X138953971Y-91827831D01*
X139002797Y-91867900D01*
X139058501Y-91897675D01*
X139118944Y-91916010D01*
X139155731Y-91919633D01*
X139200743Y-91964645D01*
X139277632Y-92016021D01*
X139363067Y-92051409D01*
X139453763Y-92069450D01*
X139546237Y-92069450D01*
X139636933Y-92051409D01*
X139722368Y-92016021D01*
X139799257Y-91964645D01*
X139864645Y-91899257D01*
X139916021Y-91822368D01*
X139951409Y-91736933D01*
X139969450Y-91646237D01*
X139969450Y-91553763D01*
X139951409Y-91463067D01*
X139933839Y-91420650D01*
X149117183Y-91420650D01*
X149179350Y-91482817D01*
X149179351Y-99389245D01*
X149177799Y-99405000D01*
X149183991Y-99467858D01*
X149202326Y-99528301D01*
X149232100Y-99584005D01*
X149247137Y-99602327D01*
X149272170Y-99632831D01*
X149284409Y-99642875D01*
X155901466Y-106259934D01*
X155916285Y-106334432D01*
X155947150Y-106408947D01*
X155991960Y-106476009D01*
X156048991Y-106533040D01*
X156116053Y-106577850D01*
X156190568Y-106608715D01*
X156269673Y-106624450D01*
X156329351Y-106624450D01*
X156329350Y-108851877D01*
X156313895Y-108858279D01*
X156232257Y-108912828D01*
X156162828Y-108982257D01*
X156108279Y-109063895D01*
X156070705Y-109154607D01*
X156051550Y-109250907D01*
X156051550Y-109349093D01*
X156070705Y-109445393D01*
X156108279Y-109536105D01*
X156162828Y-109617743D01*
X156232257Y-109687172D01*
X156313895Y-109741721D01*
X156404607Y-109779295D01*
X156500907Y-109798450D01*
X156599093Y-109798450D01*
X156695393Y-109779295D01*
X156786105Y-109741721D01*
X156867743Y-109687172D01*
X156937172Y-109617743D01*
X156991721Y-109536105D01*
X157029295Y-109445393D01*
X157048450Y-109349093D01*
X157048450Y-109250907D01*
X157029295Y-109154607D01*
X156991721Y-109063895D01*
X156970650Y-109032360D01*
X156970650Y-106065744D01*
X156972201Y-106049999D01*
X156967217Y-105999400D01*
X156966010Y-105987142D01*
X156947675Y-105926699D01*
X156917900Y-105870995D01*
X156877831Y-105822169D01*
X156865598Y-105812130D01*
X150320650Y-99267184D01*
X150320650Y-92482817D01*
X150323569Y-92479897D01*
X150377632Y-92516021D01*
X150463067Y-92551409D01*
X150553763Y-92569450D01*
X150646237Y-92569450D01*
X150736933Y-92551409D01*
X150822368Y-92516021D01*
X150874999Y-92480854D01*
X150927632Y-92516023D01*
X151013067Y-92551411D01*
X151103763Y-92569452D01*
X151196237Y-92569452D01*
X151286933Y-92551411D01*
X151372368Y-92516023D01*
X151449257Y-92464647D01*
X151493252Y-92420652D01*
X153792186Y-92420652D01*
X157179351Y-95807818D01*
X157179350Y-100634255D01*
X157177799Y-100650000D01*
X157179350Y-100665745D01*
X157179350Y-100665746D01*
X157183990Y-100712857D01*
X157202325Y-100773300D01*
X157202326Y-100773301D01*
X157232100Y-100829005D01*
X157241535Y-100840501D01*
X157272169Y-100877831D01*
X157284413Y-100887879D01*
X159229351Y-102832818D01*
X159229350Y-107591962D01*
X159179432Y-107571285D01*
X159100327Y-107555550D01*
X159019673Y-107555550D01*
X158940568Y-107571285D01*
X158870650Y-107600246D01*
X158870650Y-103090745D01*
X158872201Y-103075000D01*
X158867047Y-103022674D01*
X158866010Y-103012142D01*
X158847675Y-102951699D01*
X158822182Y-102904005D01*
X158817900Y-102895994D01*
X158803957Y-102879005D01*
X158777831Y-102847169D01*
X158765592Y-102837125D01*
X158437879Y-102509413D01*
X158427831Y-102497169D01*
X158379005Y-102457100D01*
X158323301Y-102427325D01*
X158262858Y-102408990D01*
X158215747Y-102404350D01*
X158215745Y-102404350D01*
X158200000Y-102402799D01*
X158184255Y-102404350D01*
X157032818Y-102404350D01*
X156520650Y-101892184D01*
X156520650Y-97165744D01*
X156522201Y-97149999D01*
X156519039Y-97117900D01*
X156516010Y-97087142D01*
X156497675Y-97026699D01*
X156467900Y-96970995D01*
X156427831Y-96922169D01*
X156415598Y-96912130D01*
X152437879Y-92934413D01*
X152427831Y-92922169D01*
X152379005Y-92882100D01*
X152323301Y-92852325D01*
X152262858Y-92833990D01*
X152215747Y-92829350D01*
X152215745Y-92829350D01*
X152200000Y-92827799D01*
X152184255Y-92829350D01*
X151543250Y-92829350D01*
X151499255Y-92785355D01*
X151422366Y-92733979D01*
X151336931Y-92698591D01*
X151246235Y-92680550D01*
X151153761Y-92680550D01*
X151063065Y-92698591D01*
X150977630Y-92733979D01*
X150900741Y-92785355D01*
X150835353Y-92850743D01*
X150783977Y-92927632D01*
X150748589Y-93013067D01*
X150730548Y-93103763D01*
X150730548Y-93196237D01*
X150748589Y-93286933D01*
X150783977Y-93372368D01*
X150835353Y-93449257D01*
X150900741Y-93514645D01*
X150977630Y-93566021D01*
X151063065Y-93601409D01*
X151153761Y-93619450D01*
X151246235Y-93619450D01*
X151336931Y-93601409D01*
X151422366Y-93566021D01*
X151499255Y-93514645D01*
X151543250Y-93470650D01*
X152067184Y-93470650D01*
X155879351Y-97282819D01*
X155879350Y-102009255D01*
X155877799Y-102025000D01*
X155879350Y-102040745D01*
X155879350Y-102040746D01*
X155883990Y-102087857D01*
X155902325Y-102148300D01*
X155902326Y-102148301D01*
X155932100Y-102204005D01*
X155941535Y-102215501D01*
X155972169Y-102252831D01*
X155984413Y-102262879D01*
X156662130Y-102940598D01*
X156672169Y-102952831D01*
X156720995Y-102992900D01*
X156776699Y-103022675D01*
X156837142Y-103041010D01*
X156884253Y-103045650D01*
X156884254Y-103045650D01*
X156899999Y-103047201D01*
X156915744Y-103045650D01*
X158067184Y-103045650D01*
X158229351Y-103207818D01*
X158229350Y-108189255D01*
X158227799Y-108205000D01*
X158229350Y-108220745D01*
X158229350Y-108220746D01*
X158233990Y-108267857D01*
X158252325Y-108328300D01*
X158252326Y-108328301D01*
X158282100Y-108384005D01*
X158291535Y-108395501D01*
X158322169Y-108432831D01*
X158334413Y-108442879D01*
X158401466Y-108509932D01*
X158416285Y-108584432D01*
X158447150Y-108658947D01*
X158491960Y-108726009D01*
X158548991Y-108783040D01*
X158616053Y-108827850D01*
X158690568Y-108858715D01*
X158769673Y-108874450D01*
X158850327Y-108874450D01*
X158929432Y-108858715D01*
X159003947Y-108827850D01*
X159046171Y-108799637D01*
X159312125Y-109065592D01*
X159322169Y-109077831D01*
X159350906Y-109101414D01*
X159370994Y-109117900D01*
X159426697Y-109147674D01*
X159426699Y-109147675D01*
X159487142Y-109166010D01*
X159534253Y-109170650D01*
X159534255Y-109170650D01*
X159550000Y-109172201D01*
X159565745Y-109170650D01*
X161214255Y-109170650D01*
X161230000Y-109172201D01*
X161245745Y-109170650D01*
X161245747Y-109170650D01*
X161292858Y-109166010D01*
X161353301Y-109147675D01*
X161409005Y-109117900D01*
X161457831Y-109077831D01*
X161467879Y-109065587D01*
X162247817Y-108285650D01*
X169332183Y-108285650D01*
X169392864Y-108346331D01*
X169374550Y-108438399D01*
X169374550Y-108561601D01*
X169398586Y-108682437D01*
X169445734Y-108796262D01*
X169514181Y-108898701D01*
X169601299Y-108985819D01*
X169703738Y-109054266D01*
X169817563Y-109101414D01*
X169938399Y-109125450D01*
X170061601Y-109125450D01*
X170182437Y-109101414D01*
X170296262Y-109054266D01*
X170398701Y-108985819D01*
X170485819Y-108898701D01*
X170554266Y-108796262D01*
X170601414Y-108682437D01*
X170625450Y-108561601D01*
X170625450Y-108438399D01*
X170601414Y-108317563D01*
X170554266Y-108203738D01*
X170485819Y-108101299D01*
X170398701Y-108014181D01*
X170296262Y-107945734D01*
X170182437Y-107898586D01*
X170061601Y-107874550D01*
X169938399Y-107874550D01*
X169846331Y-107892864D01*
X169702879Y-107749412D01*
X169692831Y-107737169D01*
X169644005Y-107697100D01*
X169588301Y-107667325D01*
X169527858Y-107648990D01*
X169480747Y-107644350D01*
X169480745Y-107644350D01*
X169465000Y-107642799D01*
X169449255Y-107644350D01*
X162130744Y-107644350D01*
X162114999Y-107642799D01*
X162099254Y-107644350D01*
X162099253Y-107644350D01*
X162052142Y-107648990D01*
X161991699Y-107667325D01*
X161969848Y-107679005D01*
X161935994Y-107697100D01*
X161927598Y-107703991D01*
X161887169Y-107737169D01*
X161877125Y-107749408D01*
X161097184Y-108529350D01*
X161074116Y-108529350D01*
X161865598Y-107737870D01*
X161877831Y-107727831D01*
X161897395Y-107703991D01*
X161917900Y-107679006D01*
X161947674Y-107623302D01*
X161947675Y-107623301D01*
X161966010Y-107562858D01*
X161970650Y-107515747D01*
X161970650Y-107515746D01*
X161972201Y-107500001D01*
X161970650Y-107484256D01*
X161970650Y-107194117D01*
X161991960Y-107226009D01*
X162048991Y-107283040D01*
X162116053Y-107327850D01*
X162190568Y-107358715D01*
X162269673Y-107374450D01*
X162350327Y-107374450D01*
X162429432Y-107358715D01*
X162503947Y-107327850D01*
X162571009Y-107283040D01*
X162628040Y-107226009D01*
X162672850Y-107158947D01*
X162703715Y-107084432D01*
X162718534Y-107009932D01*
X163515598Y-106212870D01*
X163527831Y-106202831D01*
X163567900Y-106154005D01*
X163597675Y-106098301D01*
X163616010Y-106037858D01*
X163620650Y-105990747D01*
X163620650Y-105990746D01*
X163622201Y-105975001D01*
X163620650Y-105959256D01*
X163620650Y-97015744D01*
X163622201Y-96999999D01*
X163619344Y-96970994D01*
X163616010Y-96937142D01*
X163597675Y-96876699D01*
X163567900Y-96820995D01*
X163527831Y-96772169D01*
X163515599Y-96762131D01*
X154137879Y-87384413D01*
X154127831Y-87372169D01*
X154079005Y-87332100D01*
X154023301Y-87302325D01*
X153962858Y-87283990D01*
X153915747Y-87279350D01*
X153915745Y-87279350D01*
X153900000Y-87277799D01*
X153884255Y-87279350D01*
X150943252Y-87279350D01*
X150899257Y-87235355D01*
X150822368Y-87183979D01*
X150736933Y-87148591D01*
X150646237Y-87130550D01*
X150553763Y-87130550D01*
X150463067Y-87148591D01*
X150377632Y-87183979D01*
X150300743Y-87235355D01*
X150235355Y-87300743D01*
X150183979Y-87377632D01*
X150148591Y-87463067D01*
X150130550Y-87553763D01*
X150130550Y-87646237D01*
X150148591Y-87736933D01*
X150183979Y-87822368D01*
X150202442Y-87850000D01*
X150183979Y-87877632D01*
X150148591Y-87963067D01*
X150130550Y-88053763D01*
X150130550Y-88146237D01*
X150148591Y-88236933D01*
X150183979Y-88322368D01*
X150202442Y-88350000D01*
X150183979Y-88377632D01*
X150148591Y-88463067D01*
X150130550Y-88553763D01*
X150130550Y-88646237D01*
X150148591Y-88736933D01*
X150183979Y-88822368D01*
X150235355Y-88899257D01*
X150300743Y-88964645D01*
X150377632Y-89016021D01*
X150463067Y-89051409D01*
X150553763Y-89069450D01*
X150646237Y-89069450D01*
X150736933Y-89051409D01*
X150822368Y-89016021D01*
X150899257Y-88964645D01*
X150943252Y-88920650D01*
X153667184Y-88920650D01*
X162319451Y-97572918D01*
X162319451Y-97615984D01*
X161987879Y-97284413D01*
X161977831Y-97272169D01*
X161929005Y-97232100D01*
X161873301Y-97202325D01*
X161812858Y-97183990D01*
X161765747Y-97179350D01*
X161765745Y-97179350D01*
X161750000Y-97177799D01*
X161734255Y-97179350D01*
X159784265Y-97179350D01*
X159717743Y-97112828D01*
X159636105Y-97058279D01*
X159545393Y-97020705D01*
X159449093Y-97001550D01*
X159350907Y-97001550D01*
X159254607Y-97020705D01*
X159163895Y-97058279D01*
X159082257Y-97112828D01*
X159012828Y-97182257D01*
X158958279Y-97263895D01*
X158920705Y-97354607D01*
X158901550Y-97450907D01*
X158901550Y-97549093D01*
X158920705Y-97645393D01*
X158958279Y-97736105D01*
X159012828Y-97817743D01*
X159082257Y-97887172D01*
X159163895Y-97941721D01*
X159254607Y-97979295D01*
X159350907Y-97998450D01*
X159449093Y-97998450D01*
X159545393Y-97979295D01*
X159636105Y-97941721D01*
X159717743Y-97887172D01*
X159784265Y-97820650D01*
X161617184Y-97820650D01*
X161989351Y-98192818D01*
X161989350Y-103207897D01*
X161947150Y-103271053D01*
X161916285Y-103345568D01*
X161900550Y-103424673D01*
X161900550Y-103505327D01*
X161916285Y-103584432D01*
X161947150Y-103658947D01*
X161991960Y-103726009D01*
X162048991Y-103783040D01*
X162116053Y-103827850D01*
X162190568Y-103858715D01*
X162269673Y-103874450D01*
X162319452Y-103874450D01*
X162319452Y-105427080D01*
X161434413Y-106312121D01*
X161422169Y-106322169D01*
X161391535Y-106359499D01*
X161382100Y-106370995D01*
X161369801Y-106394005D01*
X161352325Y-106426700D01*
X161333990Y-106487143D01*
X161329980Y-106527858D01*
X161327799Y-106550000D01*
X161329350Y-106565745D01*
X161329351Y-107367181D01*
X160558160Y-108138374D01*
X160503947Y-108102150D01*
X160429432Y-108071285D01*
X160350327Y-108055550D01*
X160269673Y-108055550D01*
X160190568Y-108071285D01*
X160116053Y-108102150D01*
X160060000Y-108139604D01*
X160003947Y-108102150D01*
X159929432Y-108071285D01*
X159870650Y-108059593D01*
X159870650Y-102715745D01*
X159872201Y-102700000D01*
X159868472Y-102662141D01*
X159866010Y-102637142D01*
X159847675Y-102576699D01*
X159831263Y-102545994D01*
X159817900Y-102520994D01*
X159798347Y-102497169D01*
X159777831Y-102472169D01*
X159765592Y-102462125D01*
X159642110Y-102338643D01*
X159690568Y-102358715D01*
X159769673Y-102374450D01*
X159850327Y-102374450D01*
X159929432Y-102358715D01*
X160003947Y-102327850D01*
X160071009Y-102283040D01*
X160128040Y-102226009D01*
X160172850Y-102158947D01*
X160203715Y-102084432D01*
X160219450Y-102005327D01*
X160219450Y-101924673D01*
X160203715Y-101845568D01*
X160172850Y-101771053D01*
X160128040Y-101703991D01*
X160071009Y-101646960D01*
X160003947Y-101602150D01*
X159929432Y-101571285D01*
X159854933Y-101556466D01*
X158595650Y-100297184D01*
X158595650Y-95215744D01*
X158597201Y-95199999D01*
X158594344Y-95170994D01*
X158591010Y-95137142D01*
X158572675Y-95076699D01*
X158542900Y-95020995D01*
X158502831Y-94972169D01*
X158490599Y-94962131D01*
X153462879Y-89934413D01*
X153452831Y-89922169D01*
X153404005Y-89882100D01*
X153348301Y-89852325D01*
X153287858Y-89833990D01*
X153240747Y-89829350D01*
X153240745Y-89829350D01*
X153225000Y-89827799D01*
X153209255Y-89829350D01*
X139215744Y-89829350D01*
X139199999Y-89827799D01*
X139184254Y-89829350D01*
X139184253Y-89829350D01*
X139137142Y-89833990D01*
X139076699Y-89852325D01*
X139050769Y-89866185D01*
X139020994Y-89882100D01*
X138995469Y-89903048D01*
X138972169Y-89922169D01*
X138962129Y-89934403D01*
X138684408Y-90212126D01*
X138672170Y-90222169D01*
X138647137Y-90252673D01*
X138632100Y-90270995D01*
X138602326Y-90326699D01*
X138583991Y-90387142D01*
X138577799Y-90450000D01*
X137370650Y-90450000D01*
X137370650Y-83915745D01*
X137372201Y-83900000D01*
X137368367Y-83861075D01*
X137366010Y-83837142D01*
X137347675Y-83776699D01*
X137317900Y-83720994D01*
X137305560Y-83705958D01*
X137277831Y-83672169D01*
X137265594Y-83662127D01*
X135107136Y-81503670D01*
X135125450Y-81411601D01*
X135125450Y-81288399D01*
X135101414Y-81167563D01*
X135054266Y-81053738D01*
X134985819Y-80951299D01*
X134898701Y-80864181D01*
X134796262Y-80795734D01*
X134682437Y-80748586D01*
X134561601Y-80724550D01*
X134438399Y-80724550D01*
X134317563Y-80748586D01*
X134203738Y-80795734D01*
X134101299Y-80864181D01*
X134014181Y-80951299D01*
X133945734Y-81053738D01*
X133898586Y-81167563D01*
X133874550Y-81288399D01*
X133874550Y-81411601D01*
X133898586Y-81532437D01*
X133945734Y-81646262D01*
X134014181Y-81748701D01*
X134101299Y-81835819D01*
X134203738Y-81904266D01*
X134317563Y-81951414D01*
X134438399Y-81975450D01*
X134561601Y-81975450D01*
X134653670Y-81957136D01*
X136729350Y-84032817D01*
X136729351Y-91884245D01*
X136727799Y-91900000D01*
X136733991Y-91962858D01*
X136752326Y-92023301D01*
X136782100Y-92079005D01*
X136797137Y-92097327D01*
X136822170Y-92127831D01*
X136834409Y-92137875D01*
X138571083Y-93874550D01*
X138488399Y-93874550D01*
X138396331Y-93892864D01*
X136320650Y-91817184D01*
X136320650Y-90637971D01*
X136398701Y-90585819D01*
X136485819Y-90498701D01*
X136554266Y-90396262D01*
X136601414Y-90282437D01*
X136625450Y-90161601D01*
X136625450Y-90038399D01*
X136601414Y-89917563D01*
X136554266Y-89803738D01*
X136485819Y-89701299D01*
X136398701Y-89614181D01*
X136296262Y-89545734D01*
X136182437Y-89498586D01*
X136061601Y-89474550D01*
X135938399Y-89474550D01*
X135906253Y-89480944D01*
X130300561Y-83875253D01*
X130288925Y-83861075D01*
X130232365Y-83814656D01*
X130167835Y-83780165D01*
X130097817Y-83758925D01*
X130043245Y-83753550D01*
X130043237Y-83753550D01*
X130025000Y-83751754D01*
X130006763Y-83753550D01*
X125447525Y-83753550D01*
X125406270Y-83653951D01*
X125297440Y-83491075D01*
X125158925Y-83352560D01*
X124996049Y-83243730D01*
X124815070Y-83168766D01*
X124622945Y-83130550D01*
X124427055Y-83130550D01*
X124234930Y-83168766D01*
X124053951Y-83243730D01*
X123891075Y-83352560D01*
X123752560Y-83491075D01*
X123643730Y-83653951D01*
X123568766Y-83834930D01*
X123530550Y-84027055D01*
X120269450Y-84027055D01*
X120269450Y-74394450D01*
X136530000Y-74394450D01*
X136538672Y-74393596D01*
X136547010Y-74391066D01*
X136554695Y-74386959D01*
X136561431Y-74381431D01*
X136566959Y-74374695D01*
X136571066Y-74367010D01*
X136573596Y-74358672D01*
X136574450Y-74350000D01*
X136574450Y-71994450D01*
X145155550Y-71994450D01*
X145155550Y-74330000D01*
X145155550Y-74330000D01*
G37*
X145155550Y-74330000D02*
X145156404Y-74338672D01*
X145158934Y-74347010D01*
X145163041Y-74354695D01*
X145168569Y-74361431D01*
X145175305Y-74366959D01*
X145182990Y-74371066D01*
X145191328Y-74373596D01*
X145200000Y-74374450D01*
X177730551Y-74374450D01*
X177730550Y-96565550D01*
X177214450Y-96565550D01*
X177214450Y-95610000D01*
X177213596Y-95601328D01*
X177211066Y-95592990D01*
X177206959Y-95585305D01*
X177201431Y-95578569D01*
X177194695Y-95573041D01*
X177187010Y-95568934D01*
X177178672Y-95566404D01*
X177170000Y-95565550D01*
X176470000Y-95565550D01*
X176461328Y-95566404D01*
X176452990Y-95568934D01*
X176445305Y-95573041D01*
X176438569Y-95578569D01*
X176433041Y-95585305D01*
X176428934Y-95592990D01*
X176426404Y-95601328D01*
X176425550Y-95610000D01*
X176425550Y-96565550D01*
X175914450Y-96565550D01*
X175914450Y-95610000D01*
X175913596Y-95601328D01*
X175911066Y-95592990D01*
X175906959Y-95585305D01*
X175901431Y-95578569D01*
X175894695Y-95573041D01*
X175887010Y-95568934D01*
X175878672Y-95566404D01*
X175870000Y-95565550D01*
X171770000Y-95565550D01*
X171761328Y-95566404D01*
X171752990Y-95568934D01*
X171745305Y-95573041D01*
X171738569Y-95578569D01*
X171733041Y-95585305D01*
X171728934Y-95592990D01*
X171726404Y-95601328D01*
X171725550Y-95610000D01*
X171725550Y-99610000D01*
X171726404Y-99618672D01*
X171728934Y-99627010D01*
X171733041Y-99634695D01*
X171738569Y-99641431D01*
X171745305Y-99646959D01*
X171752990Y-99651066D01*
X171761328Y-99653596D01*
X171770000Y-99654450D01*
X175870000Y-99654450D01*
X175878672Y-99653596D01*
X175887010Y-99651066D01*
X175894695Y-99646959D01*
X175901431Y-99641431D01*
X175906959Y-99634695D01*
X175911066Y-99627010D01*
X175913596Y-99618672D01*
X175914450Y-99610000D01*
X175914450Y-98654450D01*
X176425550Y-98654450D01*
X176425550Y-99610000D01*
X176426404Y-99618672D01*
X176428934Y-99627010D01*
X176433041Y-99634695D01*
X176438569Y-99641431D01*
X176445305Y-99646959D01*
X176452990Y-99651066D01*
X176461328Y-99653596D01*
X176470000Y-99654450D01*
X177170000Y-99654450D01*
X177178672Y-99653596D01*
X177187010Y-99651066D01*
X177194695Y-99646959D01*
X177201431Y-99641431D01*
X177206959Y-99634695D01*
X177211066Y-99627010D01*
X177213596Y-99618672D01*
X177214450Y-99610000D01*
X177214450Y-98654450D01*
X177730550Y-98654450D01*
X177730550Y-113060169D01*
X177634744Y-112772165D01*
X177462240Y-112468503D01*
X177234040Y-112204131D01*
X176958835Y-111989117D01*
X176647109Y-111831653D01*
X176310735Y-111737736D01*
X175962525Y-111710942D01*
X175615742Y-111752294D01*
X175283595Y-111860215D01*
X174978737Y-112030595D01*
X174712777Y-112256944D01*
X174495848Y-112530640D01*
X174336211Y-112841260D01*
X174239948Y-113176970D01*
X174210724Y-113524985D01*
X174249654Y-113872048D01*
X174355253Y-114204939D01*
X174523501Y-114510980D01*
X174747987Y-114778513D01*
X175020163Y-114997348D01*
X175329660Y-115159149D01*
X175572260Y-115230550D01*
X122432023Y-115230550D01*
X122693440Y-115149628D01*
X123000648Y-114983521D01*
X123269741Y-114760908D01*
X123490471Y-114490267D01*
X123654429Y-114181906D01*
X123755370Y-113847573D01*
X123789450Y-113500000D01*
X123788752Y-113450036D01*
X123744981Y-113103550D01*
X123634744Y-112772165D01*
X123462240Y-112468503D01*
X123234040Y-112204131D01*
X122958835Y-111989117D01*
X122647109Y-111831653D01*
X122310735Y-111737736D01*
X121962525Y-111710942D01*
X121615742Y-111752294D01*
X121283595Y-111860215D01*
X120978737Y-112030595D01*
X120712777Y-112256944D01*
X120495848Y-112530640D01*
X120336211Y-112841260D01*
X120269450Y-113074084D01*
X120269450Y-106138000D01*
X137073968Y-106138000D01*
X137073968Y-107662000D01*
X137078688Y-107709920D01*
X137092666Y-107755999D01*
X137115364Y-107798466D01*
X137145912Y-107835688D01*
X137183134Y-107866236D01*
X137225601Y-107888934D01*
X137271680Y-107902912D01*
X137319600Y-107907632D01*
X138843600Y-107907632D01*
X138891520Y-107902912D01*
X138937599Y-107888934D01*
X138980066Y-107866236D01*
X139017288Y-107835688D01*
X139047836Y-107798466D01*
X139070534Y-107755999D01*
X139084512Y-107709920D01*
X139089232Y-107662000D01*
X139089232Y-106138000D01*
X139084512Y-106090080D01*
X139070534Y-106044001D01*
X139047836Y-106001534D01*
X139017288Y-105964312D01*
X138980066Y-105933764D01*
X138937599Y-105911066D01*
X138891520Y-105897088D01*
X138843600Y-105892368D01*
X137319600Y-105892368D01*
X137271680Y-105897088D01*
X137225601Y-105911066D01*
X137183134Y-105933764D01*
X137145912Y-105964312D01*
X137115364Y-106001534D01*
X137092666Y-106044001D01*
X137078688Y-106090080D01*
X137073968Y-106138000D01*
X120269450Y-106138000D01*
X120269450Y-102227055D01*
X123455550Y-102227055D01*
X123455550Y-102422945D01*
X123493766Y-102615070D01*
X123568730Y-102796049D01*
X123677560Y-102958925D01*
X123816075Y-103097440D01*
X123978951Y-103206270D01*
X124159930Y-103281234D01*
X124352055Y-103319450D01*
X124547945Y-103319450D01*
X124740070Y-103281234D01*
X124921049Y-103206270D01*
X125083925Y-103097440D01*
X125222440Y-102958925D01*
X125331270Y-102796049D01*
X125406234Y-102615070D01*
X125444450Y-102422945D01*
X125444450Y-102227055D01*
X125406234Y-102034930D01*
X125331270Y-101853951D01*
X125222440Y-101691075D01*
X125083925Y-101552560D01*
X124921049Y-101443730D01*
X124740070Y-101368766D01*
X124547945Y-101330550D01*
X124352055Y-101330550D01*
X124159930Y-101368766D01*
X123978951Y-101443730D01*
X123816075Y-101552560D01*
X123677560Y-101691075D01*
X123568730Y-101853951D01*
X123493766Y-102034930D01*
X123455550Y-102227055D01*
X120269450Y-102227055D01*
X120269450Y-93938399D01*
X127449550Y-93938399D01*
X127449550Y-94061601D01*
X127473586Y-94182437D01*
X127520734Y-94296262D01*
X127589181Y-94398701D01*
X127676299Y-94485819D01*
X127778738Y-94554266D01*
X127892563Y-94601414D01*
X128013399Y-94625450D01*
X128136601Y-94625450D01*
X128168747Y-94619056D01*
X129899444Y-96349754D01*
X129911071Y-96363921D01*
X129925237Y-96375547D01*
X129925242Y-96375552D01*
X129944188Y-96391100D01*
X129967631Y-96410340D01*
X130032161Y-96444831D01*
X130080938Y-96459628D01*
X130102178Y-96466071D01*
X130108601Y-96466704D01*
X130156751Y-96471446D01*
X130156758Y-96471446D01*
X130174996Y-96473242D01*
X130193233Y-96471446D01*
X134395973Y-96471446D01*
X134414181Y-96498697D01*
X134501299Y-96585815D01*
X134603738Y-96654262D01*
X134717563Y-96701410D01*
X134838399Y-96725446D01*
X134961601Y-96725446D01*
X135082437Y-96701410D01*
X135196262Y-96654262D01*
X135298701Y-96585815D01*
X135385819Y-96498697D01*
X135454266Y-96396258D01*
X135501414Y-96282433D01*
X135525450Y-96161597D01*
X135525450Y-96038395D01*
X135501414Y-95917559D01*
X135454266Y-95803734D01*
X135385819Y-95701295D01*
X135298701Y-95614177D01*
X135271450Y-95595969D01*
X135271450Y-94718229D01*
X135273245Y-94699999D01*
X135271450Y-94681769D01*
X135271450Y-94681755D01*
X135266075Y-94627183D01*
X135265550Y-94625450D01*
X135258258Y-94601414D01*
X135244835Y-94557165D01*
X135210344Y-94492635D01*
X135163925Y-94436075D01*
X135149753Y-94424444D01*
X129256564Y-88531256D01*
X129256555Y-88531245D01*
X129219056Y-88493746D01*
X129225450Y-88461601D01*
X129225450Y-88338399D01*
X129201414Y-88217563D01*
X129154266Y-88103738D01*
X129085819Y-88001299D01*
X128998701Y-87914181D01*
X128896262Y-87845734D01*
X128782437Y-87798586D01*
X128661601Y-87774550D01*
X128538399Y-87774550D01*
X128417563Y-87798586D01*
X128303738Y-87845734D01*
X128201299Y-87914181D01*
X128114181Y-88001299D01*
X128045734Y-88103738D01*
X127998586Y-88217563D01*
X127974550Y-88338399D01*
X127974550Y-88461601D01*
X127998586Y-88582437D01*
X128045734Y-88696262D01*
X128114181Y-88798701D01*
X128201299Y-88885819D01*
X128303738Y-88954266D01*
X128417563Y-89001414D01*
X128538399Y-89025450D01*
X128661601Y-89025450D01*
X128693746Y-89019056D01*
X128731245Y-89056555D01*
X128731256Y-89056564D01*
X134528551Y-94853860D01*
X134528550Y-95595968D01*
X134501299Y-95614177D01*
X134414181Y-95701295D01*
X134395973Y-95728546D01*
X130328856Y-95728546D01*
X128694056Y-94093747D01*
X128700450Y-94061601D01*
X128700450Y-93938399D01*
X128676414Y-93817563D01*
X128629266Y-93703738D01*
X128560819Y-93601299D01*
X128473701Y-93514181D01*
X128371262Y-93445734D01*
X128257437Y-93398586D01*
X128136601Y-93374550D01*
X128013399Y-93374550D01*
X127892563Y-93398586D01*
X127778738Y-93445734D01*
X127676299Y-93514181D01*
X127589181Y-93601299D01*
X127520734Y-93703738D01*
X127473586Y-93817563D01*
X127449550Y-93938399D01*
X120269450Y-93938399D01*
X120269450Y-84027055D01*
X123530550Y-84027055D01*
X123530550Y-84222945D01*
X123568766Y-84415070D01*
X123643730Y-84596049D01*
X123752560Y-84758925D01*
X123891075Y-84897440D01*
X124053951Y-85006270D01*
X124234930Y-85081234D01*
X124427055Y-85119450D01*
X124622945Y-85119450D01*
X124815070Y-85081234D01*
X124996049Y-85006270D01*
X125158925Y-84897440D01*
X125297440Y-84758925D01*
X125406270Y-84596049D01*
X125447525Y-84496450D01*
X129871142Y-84496450D01*
X135380944Y-90006253D01*
X135374550Y-90038399D01*
X135374550Y-90161601D01*
X135398586Y-90282437D01*
X135445734Y-90396262D01*
X135514181Y-90498701D01*
X135601299Y-90585819D01*
X135679351Y-90637971D01*
X135679350Y-91934255D01*
X135677799Y-91950000D01*
X135679350Y-91965745D01*
X135679350Y-91965746D01*
X135683990Y-92012857D01*
X135702325Y-92073300D01*
X135707029Y-92082100D01*
X135732100Y-92129005D01*
X135741535Y-92140501D01*
X135772169Y-92177831D01*
X135784413Y-92187879D01*
X137942864Y-94346331D01*
X137924550Y-94438399D01*
X137924550Y-94561601D01*
X137948586Y-94682437D01*
X137995734Y-94796262D01*
X138064181Y-94898701D01*
X138151299Y-94985819D01*
X138253738Y-95054266D01*
X138367563Y-95101414D01*
X138488399Y-95125450D01*
X138611601Y-95125450D01*
X138732437Y-95101414D01*
X138846262Y-95054266D01*
X138948701Y-94985819D01*
X139035819Y-94898701D01*
X139104266Y-94796262D01*
X139151414Y-94682437D01*
X139175450Y-94561601D01*
X139175450Y-94478917D01*
X143022011Y-98325479D01*
X142999550Y-98438399D01*
X142999550Y-98561601D01*
X143023586Y-98682437D01*
X143070734Y-98796262D01*
X143139181Y-98898701D01*
X143226299Y-98985819D01*
X143328738Y-99054266D01*
X143442563Y-99101414D01*
X143563399Y-99125450D01*
X143686601Y-99125450D01*
X143807437Y-99101414D01*
X143921262Y-99054266D01*
X144023701Y-98985819D01*
X144110819Y-98898701D01*
X144179266Y-98796262D01*
X144226414Y-98682437D01*
X144250450Y-98561601D01*
X144250450Y-98438399D01*
X144226414Y-98317563D01*
X144179266Y-98203738D01*
X144110819Y-98101299D01*
X144023701Y-98014181D01*
X143921262Y-97945734D01*
X143807437Y-97898586D01*
X143686601Y-97874550D01*
X143563399Y-97874550D01*
X143492184Y-97888716D01*
X137370650Y-91767184D01*
X137370650Y-90450000D01*
X138577799Y-90450000D01*
X138579351Y-90465755D01*
X138579350Y-91302453D01*
X138577799Y-91318198D01*
X138579350Y-91333943D01*
X138579350Y-91333944D01*
X138583990Y-91381055D01*
X138602325Y-91441498D01*
X138602326Y-91441499D01*
X138632100Y-91497203D01*
X138641535Y-91508699D01*
X138672169Y-91546029D01*
X138684412Y-91556076D01*
X138943931Y-91815597D01*
X138953971Y-91827831D01*
X139002797Y-91867900D01*
X139058501Y-91897675D01*
X139118944Y-91916010D01*
X139155731Y-91919633D01*
X139200743Y-91964645D01*
X139277632Y-92016021D01*
X139363067Y-92051409D01*
X139453763Y-92069450D01*
X139546237Y-92069450D01*
X139636933Y-92051409D01*
X139722368Y-92016021D01*
X139799257Y-91964645D01*
X139864645Y-91899257D01*
X139916021Y-91822368D01*
X139951409Y-91736933D01*
X139969450Y-91646237D01*
X139969450Y-91553763D01*
X139951409Y-91463067D01*
X139933839Y-91420650D01*
X149117183Y-91420650D01*
X149179350Y-91482817D01*
X149179351Y-99389245D01*
X149177799Y-99405000D01*
X149183991Y-99467858D01*
X149202326Y-99528301D01*
X149232100Y-99584005D01*
X149247137Y-99602327D01*
X149272170Y-99632831D01*
X149284409Y-99642875D01*
X155901466Y-106259934D01*
X155916285Y-106334432D01*
X155947150Y-106408947D01*
X155991960Y-106476009D01*
X156048991Y-106533040D01*
X156116053Y-106577850D01*
X156190568Y-106608715D01*
X156269673Y-106624450D01*
X156329351Y-106624450D01*
X156329350Y-108851877D01*
X156313895Y-108858279D01*
X156232257Y-108912828D01*
X156162828Y-108982257D01*
X156108279Y-109063895D01*
X156070705Y-109154607D01*
X156051550Y-109250907D01*
X156051550Y-109349093D01*
X156070705Y-109445393D01*
X156108279Y-109536105D01*
X156162828Y-109617743D01*
X156232257Y-109687172D01*
X156313895Y-109741721D01*
X156404607Y-109779295D01*
X156500907Y-109798450D01*
X156599093Y-109798450D01*
X156695393Y-109779295D01*
X156786105Y-109741721D01*
X156867743Y-109687172D01*
X156937172Y-109617743D01*
X156991721Y-109536105D01*
X157029295Y-109445393D01*
X157048450Y-109349093D01*
X157048450Y-109250907D01*
X157029295Y-109154607D01*
X156991721Y-109063895D01*
X156970650Y-109032360D01*
X156970650Y-106065744D01*
X156972201Y-106049999D01*
X156967217Y-105999400D01*
X156966010Y-105987142D01*
X156947675Y-105926699D01*
X156917900Y-105870995D01*
X156877831Y-105822169D01*
X156865598Y-105812130D01*
X150320650Y-99267184D01*
X150320650Y-92482817D01*
X150323569Y-92479897D01*
X150377632Y-92516021D01*
X150463067Y-92551409D01*
X150553763Y-92569450D01*
X150646237Y-92569450D01*
X150736933Y-92551409D01*
X150822368Y-92516021D01*
X150874999Y-92480854D01*
X150927632Y-92516023D01*
X151013067Y-92551411D01*
X151103763Y-92569452D01*
X151196237Y-92569452D01*
X151286933Y-92551411D01*
X151372368Y-92516023D01*
X151449257Y-92464647D01*
X151493252Y-92420652D01*
X153792186Y-92420652D01*
X157179351Y-95807818D01*
X157179350Y-100634255D01*
X157177799Y-100650000D01*
X157179350Y-100665745D01*
X157179350Y-100665746D01*
X157183990Y-100712857D01*
X157202325Y-100773300D01*
X157202326Y-100773301D01*
X157232100Y-100829005D01*
X157241535Y-100840501D01*
X157272169Y-100877831D01*
X157284413Y-100887879D01*
X159229351Y-102832818D01*
X159229350Y-107591962D01*
X159179432Y-107571285D01*
X159100327Y-107555550D01*
X159019673Y-107555550D01*
X158940568Y-107571285D01*
X158870650Y-107600246D01*
X158870650Y-103090745D01*
X158872201Y-103075000D01*
X158867047Y-103022674D01*
X158866010Y-103012142D01*
X158847675Y-102951699D01*
X158822182Y-102904005D01*
X158817900Y-102895994D01*
X158803957Y-102879005D01*
X158777831Y-102847169D01*
X158765592Y-102837125D01*
X158437879Y-102509413D01*
X158427831Y-102497169D01*
X158379005Y-102457100D01*
X158323301Y-102427325D01*
X158262858Y-102408990D01*
X158215747Y-102404350D01*
X158215745Y-102404350D01*
X158200000Y-102402799D01*
X158184255Y-102404350D01*
X157032818Y-102404350D01*
X156520650Y-101892184D01*
X156520650Y-97165744D01*
X156522201Y-97149999D01*
X156519039Y-97117900D01*
X156516010Y-97087142D01*
X156497675Y-97026699D01*
X156467900Y-96970995D01*
X156427831Y-96922169D01*
X156415598Y-96912130D01*
X152437879Y-92934413D01*
X152427831Y-92922169D01*
X152379005Y-92882100D01*
X152323301Y-92852325D01*
X152262858Y-92833990D01*
X152215747Y-92829350D01*
X152215745Y-92829350D01*
X152200000Y-92827799D01*
X152184255Y-92829350D01*
X151543250Y-92829350D01*
X151499255Y-92785355D01*
X151422366Y-92733979D01*
X151336931Y-92698591D01*
X151246235Y-92680550D01*
X151153761Y-92680550D01*
X151063065Y-92698591D01*
X150977630Y-92733979D01*
X150900741Y-92785355D01*
X150835353Y-92850743D01*
X150783977Y-92927632D01*
X150748589Y-93013067D01*
X150730548Y-93103763D01*
X150730548Y-93196237D01*
X150748589Y-93286933D01*
X150783977Y-93372368D01*
X150835353Y-93449257D01*
X150900741Y-93514645D01*
X150977630Y-93566021D01*
X151063065Y-93601409D01*
X151153761Y-93619450D01*
X151246235Y-93619450D01*
X151336931Y-93601409D01*
X151422366Y-93566021D01*
X151499255Y-93514645D01*
X151543250Y-93470650D01*
X152067184Y-93470650D01*
X155879351Y-97282819D01*
X155879350Y-102009255D01*
X155877799Y-102025000D01*
X155879350Y-102040745D01*
X155879350Y-102040746D01*
X155883990Y-102087857D01*
X155902325Y-102148300D01*
X155902326Y-102148301D01*
X155932100Y-102204005D01*
X155941535Y-102215501D01*
X155972169Y-102252831D01*
X155984413Y-102262879D01*
X156662130Y-102940598D01*
X156672169Y-102952831D01*
X156720995Y-102992900D01*
X156776699Y-103022675D01*
X156837142Y-103041010D01*
X156884253Y-103045650D01*
X156884254Y-103045650D01*
X156899999Y-103047201D01*
X156915744Y-103045650D01*
X158067184Y-103045650D01*
X158229351Y-103207818D01*
X158229350Y-108189255D01*
X158227799Y-108205000D01*
X158229350Y-108220745D01*
X158229350Y-108220746D01*
X158233990Y-108267857D01*
X158252325Y-108328300D01*
X158252326Y-108328301D01*
X158282100Y-108384005D01*
X158291535Y-108395501D01*
X158322169Y-108432831D01*
X158334413Y-108442879D01*
X158401466Y-108509932D01*
X158416285Y-108584432D01*
X158447150Y-108658947D01*
X158491960Y-108726009D01*
X158548991Y-108783040D01*
X158616053Y-108827850D01*
X158690568Y-108858715D01*
X158769673Y-108874450D01*
X158850327Y-108874450D01*
X158929432Y-108858715D01*
X159003947Y-108827850D01*
X159046171Y-108799637D01*
X159312125Y-109065592D01*
X159322169Y-109077831D01*
X159350906Y-109101414D01*
X159370994Y-109117900D01*
X159426697Y-109147674D01*
X159426699Y-109147675D01*
X159487142Y-109166010D01*
X159534253Y-109170650D01*
X159534255Y-109170650D01*
X159550000Y-109172201D01*
X159565745Y-109170650D01*
X161214255Y-109170650D01*
X161230000Y-109172201D01*
X161245745Y-109170650D01*
X161245747Y-109170650D01*
X161292858Y-109166010D01*
X161353301Y-109147675D01*
X161409005Y-109117900D01*
X161457831Y-109077831D01*
X161467879Y-109065587D01*
X162247817Y-108285650D01*
X169332183Y-108285650D01*
X169392864Y-108346331D01*
X169374550Y-108438399D01*
X169374550Y-108561601D01*
X169398586Y-108682437D01*
X169445734Y-108796262D01*
X169514181Y-108898701D01*
X169601299Y-108985819D01*
X169703738Y-109054266D01*
X169817563Y-109101414D01*
X169938399Y-109125450D01*
X170061601Y-109125450D01*
X170182437Y-109101414D01*
X170296262Y-109054266D01*
X170398701Y-108985819D01*
X170485819Y-108898701D01*
X170554266Y-108796262D01*
X170601414Y-108682437D01*
X170625450Y-108561601D01*
X170625450Y-108438399D01*
X170601414Y-108317563D01*
X170554266Y-108203738D01*
X170485819Y-108101299D01*
X170398701Y-108014181D01*
X170296262Y-107945734D01*
X170182437Y-107898586D01*
X170061601Y-107874550D01*
X169938399Y-107874550D01*
X169846331Y-107892864D01*
X169702879Y-107749412D01*
X169692831Y-107737169D01*
X169644005Y-107697100D01*
X169588301Y-107667325D01*
X169527858Y-107648990D01*
X169480747Y-107644350D01*
X169480745Y-107644350D01*
X169465000Y-107642799D01*
X169449255Y-107644350D01*
X162130744Y-107644350D01*
X162114999Y-107642799D01*
X162099254Y-107644350D01*
X162099253Y-107644350D01*
X162052142Y-107648990D01*
X161991699Y-107667325D01*
X161969848Y-107679005D01*
X161935994Y-107697100D01*
X161927598Y-107703991D01*
X161887169Y-107737169D01*
X161877125Y-107749408D01*
X161097184Y-108529350D01*
X161074116Y-108529350D01*
X161865598Y-107737870D01*
X161877831Y-107727831D01*
X161897395Y-107703991D01*
X161917900Y-107679006D01*
X161947674Y-107623302D01*
X161947675Y-107623301D01*
X161966010Y-107562858D01*
X161970650Y-107515747D01*
X161970650Y-107515746D01*
X161972201Y-107500001D01*
X161970650Y-107484256D01*
X161970650Y-107194117D01*
X161991960Y-107226009D01*
X162048991Y-107283040D01*
X162116053Y-107327850D01*
X162190568Y-107358715D01*
X162269673Y-107374450D01*
X162350327Y-107374450D01*
X162429432Y-107358715D01*
X162503947Y-107327850D01*
X162571009Y-107283040D01*
X162628040Y-107226009D01*
X162672850Y-107158947D01*
X162703715Y-107084432D01*
X162718534Y-107009932D01*
X163515598Y-106212870D01*
X163527831Y-106202831D01*
X163567900Y-106154005D01*
X163597675Y-106098301D01*
X163616010Y-106037858D01*
X163620650Y-105990747D01*
X163620650Y-105990746D01*
X163622201Y-105975001D01*
X163620650Y-105959256D01*
X163620650Y-97015744D01*
X163622201Y-96999999D01*
X163619344Y-96970994D01*
X163616010Y-96937142D01*
X163597675Y-96876699D01*
X163567900Y-96820995D01*
X163527831Y-96772169D01*
X163515599Y-96762131D01*
X154137879Y-87384413D01*
X154127831Y-87372169D01*
X154079005Y-87332100D01*
X154023301Y-87302325D01*
X153962858Y-87283990D01*
X153915747Y-87279350D01*
X153915745Y-87279350D01*
X153900000Y-87277799D01*
X153884255Y-87279350D01*
X150943252Y-87279350D01*
X150899257Y-87235355D01*
X150822368Y-87183979D01*
X150736933Y-87148591D01*
X150646237Y-87130550D01*
X150553763Y-87130550D01*
X150463067Y-87148591D01*
X150377632Y-87183979D01*
X150300743Y-87235355D01*
X150235355Y-87300743D01*
X150183979Y-87377632D01*
X150148591Y-87463067D01*
X150130550Y-87553763D01*
X150130550Y-87646237D01*
X150148591Y-87736933D01*
X150183979Y-87822368D01*
X150202442Y-87850000D01*
X150183979Y-87877632D01*
X150148591Y-87963067D01*
X150130550Y-88053763D01*
X150130550Y-88146237D01*
X150148591Y-88236933D01*
X150183979Y-88322368D01*
X150202442Y-88350000D01*
X150183979Y-88377632D01*
X150148591Y-88463067D01*
X150130550Y-88553763D01*
X150130550Y-88646237D01*
X150148591Y-88736933D01*
X150183979Y-88822368D01*
X150235355Y-88899257D01*
X150300743Y-88964645D01*
X150377632Y-89016021D01*
X150463067Y-89051409D01*
X150553763Y-89069450D01*
X150646237Y-89069450D01*
X150736933Y-89051409D01*
X150822368Y-89016021D01*
X150899257Y-88964645D01*
X150943252Y-88920650D01*
X153667184Y-88920650D01*
X162319451Y-97572918D01*
X162319451Y-97615984D01*
X161987879Y-97284413D01*
X161977831Y-97272169D01*
X161929005Y-97232100D01*
X161873301Y-97202325D01*
X161812858Y-97183990D01*
X161765747Y-97179350D01*
X161765745Y-97179350D01*
X161750000Y-97177799D01*
X161734255Y-97179350D01*
X159784265Y-97179350D01*
X159717743Y-97112828D01*
X159636105Y-97058279D01*
X159545393Y-97020705D01*
X159449093Y-97001550D01*
X159350907Y-97001550D01*
X159254607Y-97020705D01*
X159163895Y-97058279D01*
X159082257Y-97112828D01*
X159012828Y-97182257D01*
X158958279Y-97263895D01*
X158920705Y-97354607D01*
X158901550Y-97450907D01*
X158901550Y-97549093D01*
X158920705Y-97645393D01*
X158958279Y-97736105D01*
X159012828Y-97817743D01*
X159082257Y-97887172D01*
X159163895Y-97941721D01*
X159254607Y-97979295D01*
X159350907Y-97998450D01*
X159449093Y-97998450D01*
X159545393Y-97979295D01*
X159636105Y-97941721D01*
X159717743Y-97887172D01*
X159784265Y-97820650D01*
X161617184Y-97820650D01*
X161989351Y-98192818D01*
X161989350Y-103207897D01*
X161947150Y-103271053D01*
X161916285Y-103345568D01*
X161900550Y-103424673D01*
X161900550Y-103505327D01*
X161916285Y-103584432D01*
X161947150Y-103658947D01*
X161991960Y-103726009D01*
X162048991Y-103783040D01*
X162116053Y-103827850D01*
X162190568Y-103858715D01*
X162269673Y-103874450D01*
X162319452Y-103874450D01*
X162319452Y-105427080D01*
X161434413Y-106312121D01*
X161422169Y-106322169D01*
X161391535Y-106359499D01*
X161382100Y-106370995D01*
X161369801Y-106394005D01*
X161352325Y-106426700D01*
X161333990Y-106487143D01*
X161329980Y-106527858D01*
X161327799Y-106550000D01*
X161329350Y-106565745D01*
X161329351Y-107367181D01*
X160558160Y-108138374D01*
X160503947Y-108102150D01*
X160429432Y-108071285D01*
X160350327Y-108055550D01*
X160269673Y-108055550D01*
X160190568Y-108071285D01*
X160116053Y-108102150D01*
X160060000Y-108139604D01*
X160003947Y-108102150D01*
X159929432Y-108071285D01*
X159870650Y-108059593D01*
X159870650Y-102715745D01*
X159872201Y-102700000D01*
X159868472Y-102662141D01*
X159866010Y-102637142D01*
X159847675Y-102576699D01*
X159831263Y-102545994D01*
X159817900Y-102520994D01*
X159798347Y-102497169D01*
X159777831Y-102472169D01*
X159765592Y-102462125D01*
X159642110Y-102338643D01*
X159690568Y-102358715D01*
X159769673Y-102374450D01*
X159850327Y-102374450D01*
X159929432Y-102358715D01*
X160003947Y-102327850D01*
X160071009Y-102283040D01*
X160128040Y-102226009D01*
X160172850Y-102158947D01*
X160203715Y-102084432D01*
X160219450Y-102005327D01*
X160219450Y-101924673D01*
X160203715Y-101845568D01*
X160172850Y-101771053D01*
X160128040Y-101703991D01*
X160071009Y-101646960D01*
X160003947Y-101602150D01*
X159929432Y-101571285D01*
X159854933Y-101556466D01*
X158595650Y-100297184D01*
X158595650Y-95215744D01*
X158597201Y-95199999D01*
X158594344Y-95170994D01*
X158591010Y-95137142D01*
X158572675Y-95076699D01*
X158542900Y-95020995D01*
X158502831Y-94972169D01*
X158490599Y-94962131D01*
X153462879Y-89934413D01*
X153452831Y-89922169D01*
X153404005Y-89882100D01*
X153348301Y-89852325D01*
X153287858Y-89833990D01*
X153240747Y-89829350D01*
X153240745Y-89829350D01*
X153225000Y-89827799D01*
X153209255Y-89829350D01*
X139215744Y-89829350D01*
X139199999Y-89827799D01*
X139184254Y-89829350D01*
X139184253Y-89829350D01*
X139137142Y-89833990D01*
X139076699Y-89852325D01*
X139050769Y-89866185D01*
X139020994Y-89882100D01*
X138995469Y-89903048D01*
X138972169Y-89922169D01*
X138962129Y-89934403D01*
X138684408Y-90212126D01*
X138672170Y-90222169D01*
X138647137Y-90252673D01*
X138632100Y-90270995D01*
X138602326Y-90326699D01*
X138583991Y-90387142D01*
X138577799Y-90450000D01*
X137370650Y-90450000D01*
X137370650Y-83915745D01*
X137372201Y-83900000D01*
X137368367Y-83861075D01*
X137366010Y-83837142D01*
X137347675Y-83776699D01*
X137317900Y-83720994D01*
X137305560Y-83705958D01*
X137277831Y-83672169D01*
X137265594Y-83662127D01*
X135107136Y-81503670D01*
X135125450Y-81411601D01*
X135125450Y-81288399D01*
X135101414Y-81167563D01*
X135054266Y-81053738D01*
X134985819Y-80951299D01*
X134898701Y-80864181D01*
X134796262Y-80795734D01*
X134682437Y-80748586D01*
X134561601Y-80724550D01*
X134438399Y-80724550D01*
X134317563Y-80748586D01*
X134203738Y-80795734D01*
X134101299Y-80864181D01*
X134014181Y-80951299D01*
X133945734Y-81053738D01*
X133898586Y-81167563D01*
X133874550Y-81288399D01*
X133874550Y-81411601D01*
X133898586Y-81532437D01*
X133945734Y-81646262D01*
X134014181Y-81748701D01*
X134101299Y-81835819D01*
X134203738Y-81904266D01*
X134317563Y-81951414D01*
X134438399Y-81975450D01*
X134561601Y-81975450D01*
X134653670Y-81957136D01*
X136729350Y-84032817D01*
X136729351Y-91884245D01*
X136727799Y-91900000D01*
X136733991Y-91962858D01*
X136752326Y-92023301D01*
X136782100Y-92079005D01*
X136797137Y-92097327D01*
X136822170Y-92127831D01*
X136834409Y-92137875D01*
X138571083Y-93874550D01*
X138488399Y-93874550D01*
X138396331Y-93892864D01*
X136320650Y-91817184D01*
X136320650Y-90637971D01*
X136398701Y-90585819D01*
X136485819Y-90498701D01*
X136554266Y-90396262D01*
X136601414Y-90282437D01*
X136625450Y-90161601D01*
X136625450Y-90038399D01*
X136601414Y-89917563D01*
X136554266Y-89803738D01*
X136485819Y-89701299D01*
X136398701Y-89614181D01*
X136296262Y-89545734D01*
X136182437Y-89498586D01*
X136061601Y-89474550D01*
X135938399Y-89474550D01*
X135906253Y-89480944D01*
X130300561Y-83875253D01*
X130288925Y-83861075D01*
X130232365Y-83814656D01*
X130167835Y-83780165D01*
X130097817Y-83758925D01*
X130043245Y-83753550D01*
X130043237Y-83753550D01*
X130025000Y-83751754D01*
X130006763Y-83753550D01*
X125447525Y-83753550D01*
X125406270Y-83653951D01*
X125297440Y-83491075D01*
X125158925Y-83352560D01*
X124996049Y-83243730D01*
X124815070Y-83168766D01*
X124622945Y-83130550D01*
X124427055Y-83130550D01*
X124234930Y-83168766D01*
X124053951Y-83243730D01*
X123891075Y-83352560D01*
X123752560Y-83491075D01*
X123643730Y-83653951D01*
X123568766Y-83834930D01*
X123530550Y-84027055D01*
X120269450Y-84027055D01*
X120269450Y-74394450D01*
X136530000Y-74394450D01*
X136538672Y-74393596D01*
X136547010Y-74391066D01*
X136554695Y-74386959D01*
X136561431Y-74381431D01*
X136566959Y-74374695D01*
X136571066Y-74367010D01*
X136573596Y-74358672D01*
X136574450Y-74350000D01*
X136574450Y-71994450D01*
X145155550Y-71994450D01*
X145155550Y-74330000D01*
M02*
