G04 #@! TF.GenerationSoftware,KiCad,Pcbnew,(5.1.0-0)*
G04 #@! TF.CreationDate,2020-07-17T10:06:27-06:00*
G04 #@! TF.ProjectId,Monitor,4d6f6e69-746f-4722-9e6b-696361645f70,rev?*
G04 #@! TF.SameCoordinates,Original*
G04 #@! TF.FileFunction,Paste,Bot*
G04 #@! TF.FilePolarity,Positive*
%FSLAX46Y46*%
G04 Gerber Fmt 4.6, Leading zero omitted, Abs format (unit mm)*
G04 Created by KiCad (PCBNEW (5.1.0-0)) date 2020-07-17 10:06:27*
%MOMM*%
%LPD*%
G04 APERTURE LIST*
%ADD10C,0.254000*%
G04 APERTURE END LIST*
D10*
G36*
X124903000Y-66673000D02*
G01*
X124627000Y-66673000D01*
X124627000Y-66327000D01*
X124903000Y-66327000D01*
X124903000Y-66673000D01*
X124903000Y-66673000D01*
G37*
X124903000Y-66673000D02*
X124627000Y-66673000D01*
X124627000Y-66327000D01*
X124903000Y-66327000D01*
X124903000Y-66673000D01*
G36*
X124903000Y-67773000D02*
G01*
X124627000Y-67773000D01*
X124627000Y-67427000D01*
X124903000Y-67427000D01*
X124903000Y-67773000D01*
X124903000Y-67773000D01*
G37*
X124903000Y-67773000D02*
X124627000Y-67773000D01*
X124627000Y-67427000D01*
X124903000Y-67427000D01*
X124903000Y-67773000D01*
G36*
X126373000Y-68173000D02*
G01*
X126097000Y-68173000D01*
X126097000Y-67827000D01*
X126373000Y-67827000D01*
X126373000Y-68173000D01*
X126373000Y-68173000D01*
G37*
X126373000Y-68173000D02*
X126097000Y-68173000D01*
X126097000Y-67827000D01*
X126373000Y-67827000D01*
X126373000Y-68173000D01*
G36*
X127393000Y-68173000D02*
G01*
X127117000Y-68173000D01*
X127117000Y-67827000D01*
X127393000Y-67827000D01*
X127393000Y-68173000D01*
X127393000Y-68173000D01*
G37*
X127393000Y-68173000D02*
X127117000Y-68173000D01*
X127117000Y-67827000D01*
X127393000Y-67827000D01*
X127393000Y-68173000D01*
G36*
X127393000Y-69273000D02*
G01*
X127117000Y-69273000D01*
X127117000Y-68927000D01*
X127393000Y-68927000D01*
X127393000Y-69273000D01*
X127393000Y-69273000D01*
G37*
X127393000Y-69273000D02*
X127117000Y-69273000D01*
X127117000Y-68927000D01*
X127393000Y-68927000D01*
X127393000Y-69273000D01*
G36*
X126373000Y-69273000D02*
G01*
X126097000Y-69273000D01*
X126097000Y-68927000D01*
X126373000Y-68927000D01*
X126373000Y-69273000D01*
X126373000Y-69273000D01*
G37*
X126373000Y-69273000D02*
X126097000Y-69273000D01*
X126097000Y-68927000D01*
X126373000Y-68927000D01*
X126373000Y-69273000D01*
G36*
X124903000Y-69723000D02*
G01*
X124627000Y-69723000D01*
X124627000Y-69377000D01*
X124903000Y-69377000D01*
X124903000Y-69723000D01*
X124903000Y-69723000D01*
G37*
X124903000Y-69723000D02*
X124627000Y-69723000D01*
X124627000Y-69377000D01*
X124903000Y-69377000D01*
X124903000Y-69723000D01*
G36*
X124903000Y-70823000D02*
G01*
X124627000Y-70823000D01*
X124627000Y-70477000D01*
X124903000Y-70477000D01*
X124903000Y-70823000D01*
X124903000Y-70823000D01*
G37*
X124903000Y-70823000D02*
X124627000Y-70823000D01*
X124627000Y-70477000D01*
X124903000Y-70477000D01*
X124903000Y-70823000D01*
G36*
X153573000Y-72173000D02*
G01*
X153227000Y-72173000D01*
X153227000Y-71897000D01*
X153573000Y-71897000D01*
X153573000Y-72173000D01*
X153573000Y-72173000D01*
G37*
X153573000Y-72173000D02*
X153227000Y-72173000D01*
X153227000Y-71897000D01*
X153573000Y-71897000D01*
X153573000Y-72173000D01*
G36*
X154673000Y-72173000D02*
G01*
X154327000Y-72173000D01*
X154327000Y-71897000D01*
X154673000Y-71897000D01*
X154673000Y-72173000D01*
X154673000Y-72173000D01*
G37*
X154673000Y-72173000D02*
X154327000Y-72173000D01*
X154327000Y-71897000D01*
X154673000Y-71897000D01*
X154673000Y-72173000D01*
G36*
X155073000Y-70403000D02*
G01*
X154727000Y-70403000D01*
X154727000Y-70127000D01*
X155073000Y-70127000D01*
X155073000Y-70403000D01*
X155073000Y-70403000D01*
G37*
X155073000Y-70403000D02*
X154727000Y-70403000D01*
X154727000Y-70127000D01*
X155073000Y-70127000D01*
X155073000Y-70403000D01*
G36*
X156173000Y-70403000D02*
G01*
X155827000Y-70403000D01*
X155827000Y-70127000D01*
X156173000Y-70127000D01*
X156173000Y-70403000D01*
X156173000Y-70403000D01*
G37*
X156173000Y-70403000D02*
X155827000Y-70403000D01*
X155827000Y-70127000D01*
X156173000Y-70127000D01*
X156173000Y-70403000D01*
G36*
X156573000Y-72173000D02*
G01*
X156227000Y-72173000D01*
X156227000Y-71897000D01*
X156573000Y-71897000D01*
X156573000Y-72173000D01*
X156573000Y-72173000D01*
G37*
X156573000Y-72173000D02*
X156227000Y-72173000D01*
X156227000Y-71897000D01*
X156573000Y-71897000D01*
X156573000Y-72173000D01*
G36*
X157673000Y-72173000D02*
G01*
X157327000Y-72173000D01*
X157327000Y-71897000D01*
X157673000Y-71897000D01*
X157673000Y-72173000D01*
X157673000Y-72173000D01*
G37*
X157673000Y-72173000D02*
X157327000Y-72173000D01*
X157327000Y-71897000D01*
X157673000Y-71897000D01*
X157673000Y-72173000D01*
G36*
X158073000Y-70403000D02*
G01*
X157727000Y-70403000D01*
X157727000Y-70127000D01*
X158073000Y-70127000D01*
X158073000Y-70403000D01*
X158073000Y-70403000D01*
G37*
X158073000Y-70403000D02*
X157727000Y-70403000D01*
X157727000Y-70127000D01*
X158073000Y-70127000D01*
X158073000Y-70403000D01*
G36*
X159173000Y-70403000D02*
G01*
X158827000Y-70403000D01*
X158827000Y-70127000D01*
X159173000Y-70127000D01*
X159173000Y-70403000D01*
X159173000Y-70403000D01*
G37*
X159173000Y-70403000D02*
X158827000Y-70403000D01*
X158827000Y-70127000D01*
X159173000Y-70127000D01*
X159173000Y-70403000D01*
G36*
X159573000Y-72173000D02*
G01*
X159227000Y-72173000D01*
X159227000Y-71897000D01*
X159573000Y-71897000D01*
X159573000Y-72173000D01*
X159573000Y-72173000D01*
G37*
X159573000Y-72173000D02*
X159227000Y-72173000D01*
X159227000Y-71897000D01*
X159573000Y-71897000D01*
X159573000Y-72173000D01*
G36*
X160673000Y-72173000D02*
G01*
X160327000Y-72173000D01*
X160327000Y-71897000D01*
X160673000Y-71897000D01*
X160673000Y-72173000D01*
X160673000Y-72173000D01*
G37*
X160673000Y-72173000D02*
X160327000Y-72173000D01*
X160327000Y-71897000D01*
X160673000Y-71897000D01*
X160673000Y-72173000D01*
M02*
